<svg width="373" height="134" viewBox="0 0 373 134" fill="none" xmlns="http://www.w3.org/2000/svg">
<path d="M66.6667 0H0V133.333H66.6667V0Z" fill="#154273"/>
<path d="M34.5333 103.147H33.3733V99.9333H34.5333V103.147ZM39.7733 88.96H38.6133V85.7467H39.7733V88.96ZM18.28 83.4133C18.1867 83.4133 17.5867 83.4133 17.5867 83.5333C17.5867 83.6533 17.8667 83.6 18.28 83.6667C19.2133 83.8267 19.5734 84.2933 20.2267 84.2933C20.8133 84.2933 21.4267 83.8933 21.1867 83.04C21.1467 82.8933 21.0667 82.9333 21.04 83.0267C20.9467 83.4133 20.48 83.6267 19.9867 83.6267C19.3733 83.6267 19.2533 83.4133 18.28 83.4133ZM11.8934 86.6267C12 86.7733 13.0933 88.1867 11.4133 88.7333C11.3333 88.76 11.32 88.8267 11.4267 88.88C12.6667 89.4 13.2667 88.44 13.2667 88.44C13.8933 89.88 12.9333 90.6667 12.9333 90.6667C13.0667 90.92 13.6667 91.36 14.56 91.56C14.9067 91.3733 15.3867 91.0267 15.5867 90.4933C15.5867 90.4933 15.8267 91.12 15.6133 91.72C18.1467 91.9466 19.04 89.92 21 90.2933C21.0533 90.3067 21.08 90.2667 21.08 90.2133C21.08 88.96 20.32 86.68 17.8934 86.2133C15.48 85.7467 16.1333 84.76 16.1333 84.76C17.1467 84.72 17.7333 85.16 17.7333 85.16C17.92 84.8533 17.6533 84.5333 17.6533 84.5333C17.7467 84.4133 17.8 84 17.8 84C16.6533 84 16.36 83.7467 16.36 83.7467C16.1867 83.0667 16.6533 82.1067 18.36 83.1333C18.7867 82.76 18.7467 82.1733 18.7467 82.1733C18.88 82.1067 18.96 81.9067 18.96 81.8267C18.96 81.5467 17.6 80.7867 17.2533 80.6933C17.1733 80.28 16.64 79.6933 15.04 79.9067C14.28 80 13.7333 79.8 13.9867 79.36C14.0267 79.28 13.8933 79.2667 13.8267 79.3467C13.6533 79.52 13.4133 80.0133 14.0666 80.3467C14.8 80.72 14.84 81.4533 14.8534 81.56C14.8667 81.72 14.68 81.7333 14.64 81.5733C14.3067 80.3333 12.6 80.0667 11.6 80.72C11.6533 81.3867 12.3733 81.8267 12.76 81.8267C12.9867 81.8267 13.2933 81.6 13.2933 81.2933C13.2933 81.1467 13.3733 81.16 13.4133 81.28C13.5733 81.72 12.92 82.64 11.96 82.08C10.9733 83.0667 11.3733 84.2933 11.4667 84.7333C11.64 85.5333 11.2534 86.32 10.52 85.96C10.48 85.9467 10.44 85.9333 10.44 86.0133C10.4533 86.4933 11.1067 87.0667 11.8934 86.6267ZM17.3333 81.6533C16.8667 82.1733 16.12 82.0533 15.9333 81.2C16.8933 81.1467 17.2933 81.24 17.3333 81.6533ZM46.76 83.6267C46.2667 83.6267 45.8 83.4133 45.7067 83.0267C45.68 82.9333 45.6 82.8933 45.56 83.04C45.32 83.8933 45.9333 84.2933 46.52 84.2933C47.1734 84.2933 47.5333 83.8267 48.4667 83.6667C48.88 83.6 49.16 83.6667 49.16 83.5333C49.16 83.4133 48.56 83.4133 48.4667 83.4133C47.5067 83.4133 47.3733 83.6267 46.76 83.6267ZM56.3067 85.9867C56.3067 85.9067 56.2666 85.92 56.2266 85.9333C55.4933 86.2933 55.1067 85.52 55.28 84.7067C55.3733 84.2533 55.7733 83.04 54.7867 82.0533C53.8133 82.6133 53.16 81.6933 53.3333 81.2533C53.3733 81.1333 53.4533 81.12 53.4533 81.2667C53.4533 81.5733 53.76 81.8 53.9867 81.8C54.3733 81.8 55.0933 81.36 55.1466 80.6933C54.1466 80.04 52.44 80.3067 52.1066 81.5467C52.0666 81.7067 51.88 81.6933 51.8933 81.5333C51.8933 81.4267 51.9467 80.6933 52.68 80.32C53.3467 79.9867 53.1067 79.4933 52.92 79.32C52.8533 79.2533 52.7067 79.2667 52.76 79.3333C53.0133 79.7733 52.4667 79.9733 51.72 79.88C50.12 79.6667 49.6 80.2667 49.5067 80.6667C49.16 80.76 47.8 81.52 47.8 81.8C47.8 81.88 47.88 82.0933 48.0133 82.1467C48.0133 82.1467 47.9867 82.72 48.4 83.1067C50.0934 82.08 50.5734 83.04 50.4 83.72C50.4 83.72 50.0933 83.96 48.9467 83.9733C48.9467 83.9733 49 84.3867 49.0933 84.5067C49.0933 84.5067 48.8267 84.84 49.0133 85.1333C49.0133 85.1333 49.6 84.6933 50.6133 84.7333C50.6133 84.7333 51.2667 85.72 48.8534 86.1866C46.44 86.6533 45.6667 88.9333 45.6667 90.1866C45.6667 90.2533 45.6933 90.28 45.7467 90.2666C47.7067 89.9067 48.6 91.9333 51.1333 91.6933C50.9067 91.0933 51.16 90.4666 51.16 90.4666C51.36 91 51.84 91.36 52.1867 91.5333C53.0934 91.3333 53.68 90.9067 53.8134 90.64C53.8134 90.64 52.8534 89.8533 53.48 88.4133C53.48 88.4133 54.08 89.3733 55.32 88.8533C55.4267 88.8 55.4 88.7333 55.3333 88.7067C53.6533 88.16 54.7467 86.7467 54.8533 86.6C55.64 87.0667 56.3067 86.4933 56.3067 85.9867ZM50.8133 81.2C50.6266 82.0533 49.88 82.1733 49.4133 81.6533C49.4533 81.24 49.8666 81.1467 50.8133 81.2ZM32.9333 66.9467C32.9333 67.16 33.0267 67.3467 33.0933 67.4533C33.24 67.6667 33.2134 67.7867 33.1467 67.8533C33.08 67.92 32.96 67.9467 32.7467 67.8C32.64 67.72 32.4533 67.64 32.24 67.64C31.88 67.64 31.6934 67.88 31.6934 68.08C31.6934 68.28 31.88 68.52 32.24 68.52C32.4533 68.52 32.64 68.4267 32.7467 68.36C32.96 68.2133 33.08 68.24 33.1467 68.3067C33.2134 68.3733 33.12 69.1067 33.0267 69.6933C32.4266 69.8267 32.1333 70.3067 32.1333 70.5867C32.1333 71.32 32.9067 71.7333 33.3733 71.9867C33.8267 71.7467 34.6133 71.32 34.6133 70.5867C34.6133 70.3067 34.32 69.8133 33.72 69.6933C33.64 69.12 33.5333 68.3733 33.6 68.3067C33.6667 68.24 33.7867 68.2133 34 68.36C34.1067 68.44 34.2933 68.52 34.5067 68.52C34.8667 68.52 35.0533 68.28 35.0533 68.08C35.0533 67.88 34.8667 67.64 34.5067 67.64C34.2933 67.64 34.1067 67.7333 34 67.8C33.7867 67.9467 33.6667 67.92 33.6 67.8533C33.5333 67.7867 33.5067 67.6667 33.6533 67.4533C33.7333 67.3467 33.8134 67.16 33.8134 66.9467C33.8134 66.5867 33.5733 66.4 33.3733 66.4C33.1733 66.4 32.9333 66.5867 32.9333 66.9467ZM33.3733 72.36C32.88 72.36 32.48 72.76 32.48 73.2533C32.48 73.7467 32.88 74.1467 33.3733 74.1467C33.8667 74.1467 34.2667 73.7467 34.2667 73.2533C34.2667 72.76 33.8667 72.36 33.3733 72.36ZM33.3733 80.9067C36.9333 80.9067 38.9333 81.5867 38.9333 81.5867C38.9467 79.7867 38.9467 78.7867 39.9733 78.9333C39.4133 77.4267 41.84 76.8267 41.84 74.8667C41.84 73.5733 40.92 73.4267 40.6533 73.4267C39.8533 73.4267 39.9733 73.9467 39.2933 73.9467C39.2133 73.9467 39.12 73.92 39.12 73.9867C39.12 74.2133 39.3067 74.6 39.6267 74.6C40.0533 74.6 40.0533 74.1733 40.3733 74.1733C40.5067 74.1733 40.7067 74.28 40.7067 74.72C40.7067 75.56 40.16 76.48 39.5067 77.2C39.36 77 39.16 76.8667 38.9067 76.8667C38.52 76.8667 38.1867 77.2667 38.1867 77.76C38.1867 77.9466 38.2133 78.08 38.28 78.2266C38.0667 78.3466 37.8666 78.4133 37.7333 78.4133C37.44 78.4133 37 78.2933 37 77.6533C37 76.2266 38.9067 74.9733 38.9067 73.16C38.9067 72.2933 38.3333 71.44 37.12 71.44C35.8267 71.44 36.0667 72.6133 34.9467 72.6133C34.8933 72.6133 34.8534 72.6266 34.8534 72.68C34.8534 72.76 35.0533 73.4133 35.6267 73.4133C36.24 73.4133 36.4133 72.3466 36.9733 72.3466C37.1733 72.3466 37.48 72.4666 37.48 73.1867C37.48 73.7466 37.2 74.6667 36.8 75.5333C36.6533 75.3866 36.4533 75.28 36.24 75.28C35.76 75.28 35.4133 75.7466 35.4133 76.2933C35.4133 76.64 35.5467 76.9866 35.7867 77.2C35.5067 77.56 35.2133 77.8533 34.8267 77.8533C34.0533 77.8533 33.72 77.4133 33.72 76.9333C33.72 76.4133 34.6667 76.2267 34.6667 75.4267C34.6667 74.88 34.3067 74.5733 33.9733 74.5733C33.6 74.5733 33.4133 74.8133 33.3733 74.8133C33.3333 74.8133 33.1466 74.5733 32.7733 74.5733C32.4266 74.5733 32.08 74.88 32.08 75.4267C32.08 76.2266 33.0267 76.4267 33.0267 76.9333C33.0267 77.4133 32.68 77.8533 31.92 77.8533C31.5333 77.8533 31.24 77.56 30.96 77.2C31.2 76.9733 31.3333 76.64 31.3333 76.2933C31.3333 75.7333 30.9867 75.28 30.5067 75.28C30.28 75.28 30.0933 75.3867 29.9467 75.5333C29.5467 74.6533 29.2667 73.7466 29.2667 73.1867C29.2667 72.4666 29.5733 72.3466 29.7733 72.3466C30.32 72.3466 30.4933 73.4133 31.12 73.4133C31.6933 73.4133 31.8933 72.76 31.8933 72.68C31.8933 72.64 31.8533 72.6133 31.8 72.6133C30.68 72.6133 30.92 71.44 29.6267 71.44C28.4267 71.44 27.84 72.2933 27.84 73.16C27.84 74.9733 29.7467 76.2266 29.7467 77.6533C29.7467 78.2933 29.3067 78.4133 29.0133 78.4133C28.8667 78.4133 28.68 78.3466 28.4667 78.2266C28.5333 78.0666 28.56 77.9466 28.56 77.76C28.56 77.2667 28.2267 76.8667 27.84 76.8667C27.6 76.8667 27.4 77 27.2533 77.2C26.6 76.48 26.0533 75.56 26.0533 74.72C26.0533 74.2933 26.2533 74.1733 26.3867 74.1733C26.6933 74.1733 26.7067 74.6 27.1333 74.6C27.4533 74.6 27.64 74.2133 27.64 73.9867C27.64 73.92 27.5467 73.9467 27.4667 73.9467C26.7867 73.9467 26.9066 73.4267 26.1066 73.4267C25.84 73.4267 24.92 73.5733 24.92 74.8667C24.92 76.84 27.3467 77.4267 26.7867 78.9333C27.8133 78.7867 27.8 79.7867 27.8267 81.5867C27.8133 81.5867 29.8133 80.9067 33.3733 80.9067ZM26.8534 83.56C25.88 83.7733 25.1867 83.9733 24.88 84.0667C24.8933 83.64 25.0533 83.24 25.44 83.16C25.4933 83.1467 25.5067 83.08 25.4533 83.0533C24.5867 82.48 24.1333 83.5733 24.12 83.6133C23.8133 83.5867 23.3467 83.68 23.3467 84.0933C23.3467 85.3333 20.52 86.0133 19.8667 86.12C21.0267 86.56 21.5067 88.0267 21.5067 88.0267C22.3467 87.1867 23.32 86.4533 23.5467 86.4533C23.7733 86.4533 23.8533 86.7333 23.8667 86.8933C23.8667 86.9467 23.92 86.96 23.96 86.92C24.4 86.2667 24.1867 86.12 24.1467 85.92C24.12 85.7733 24.16 85.2 24.8 85.2667V93.52L24.4667 93.5867C24.32 93.6133 23.1066 92.5867 21.7333 91.6267C20.3466 90.6666 19.6133 91.24 18.04 92.0933C15.9733 93.2133 13.8934 92.2 13.8934 92.2C12.12 93.4666 11.5067 97.1467 11.5067 97.1467C11.1467 97.2933 10.56 97.4533 10.0133 97.4533C8.65335 97.4533 8.41333 96.6267 8.41333 96.1467C8.41333 94.0533 11.04 93.16 11.04 91.0933C11.04 90.5867 10.8133 88.56 8.29333 88.56H6.04C5.09333 88.56 4.86665 87.88 4.73332 87.6267C4.67998 87.52 4.58667 87.5867 4.62667 87.6667C4.69333 87.84 4.52002 88.1067 4.52002 88.6267C4.52002 89.4666 5.01335 89.9733 5.93335 89.9733C6.34668 89.9733 6.74666 89.8533 6.86666 89.7733C6.94666 89.72 7 89.8 6.96 89.8533C6.56 90.32 6.53332 91.2 6.69332 91.4C6.73332 91.4533 6.78666 91.44 6.78666 91.4C7.01333 90.52 7.84 89.68 8.96 89.68C10.3333 89.68 10.32 90.84 10.32 91.12C10.32 92.8 7.37333 94.0267 7.37333 96.3467C7.37333 98.6933 9.85332 99.1866 11.28 98.8267C11.2 101.173 8.50668 101.973 8.42668 100.293C8.42668 100.213 8.35999 100.2 8.31999 100.307C7.98665 101.133 8.11999 101.867 9.15999 102.093C9.22666 102.107 9.20001 102.147 9.13334 102.2C8.09334 102.853 8.65333 105.44 8.70666 106.2C8.78666 107.293 7.69335 107.16 7.60002 107.133C7.56002 107.12 7.50667 107.133 7.58667 107.227C8.36 108.173 9.31999 107.307 9.31999 107.307C10.04 107.533 9.60002 108.147 9.10669 108.467C9.02669 108.52 9.03999 108.573 9.11999 108.573C9.22666 108.587 10.3467 108.68 10.5467 107.787C11.04 108.373 11.7733 108.16 11.92 108.08C12.1333 107.973 13.1867 107.587 13.28 108.76C13.28 108.84 13.3333 108.787 13.3733 108.747C14.16 107.747 13.32 107.133 12.84 107.067C12.88 107.013 13.5067 106.48 14.08 107.213C14.12 107.267 14.16 107.28 14.16 107.173C14.2267 105.907 13.2 105.8 12.5333 106.347C12.5067 106.213 12.28 105.507 13.28 105.533C13.3067 105.533 13.3467 105.493 13.3067 105.453C12.5333 104.627 11.8934 105.373 11.7334 105.56C11.3867 105.973 10.52 105.8 10.44 105.8C10.7067 101.413 14.5734 102.973 15.1067 100.84C15.1334 100.733 15.1867 100.773 15.1867 100.813C15.3334 101.333 16.64 101.4 16.88 100.387C16.8933 100.32 16.88 100.28 16.84 100.32C15.72 101.44 13.2 97.9467 16.64 95.1067C19.5733 92.6933 22.2 94.04 23.2 94.8267C23.2533 95.1733 23.04 95.2933 22.9067 95.3333C22.8533 95.3467 22.84 95.3867 22.92 95.4266C23.2 95.5333 23.5867 95.4933 23.7734 95.24C24.4 95.68 23.8667 96.24 23.6133 96.3867C23.5467 96.4266 23.5733 96.4666 23.6267 96.48C24.2 96.5867 24.68 96 24.7067 95.6533L24.8 95.7066V98.2C24.8 101.747 28.8933 102.24 33.3867 105.24C37.88 102.227 41.96 101.747 41.96 98.2V95.7066L42.0533 95.6533C42.08 95.9866 42.5467 96.5866 43.1333 96.48C43.1867 96.4666 43.2134 96.4266 43.1467 96.3867C42.8934 96.2266 42.3467 95.68 42.9867 95.24C43.1734 95.5066 43.56 95.5333 43.84 95.4266C43.92 95.4 43.9067 95.3467 43.8534 95.3333C43.72 95.2933 43.5067 95.1733 43.56 94.8267C44.56 94.0267 47.1867 92.68 50.12 95.1067C53.56 97.9466 51.04 101.427 49.92 100.32C49.8667 100.267 49.8667 100.32 49.88 100.387C50.12 101.413 51.4267 101.333 51.5733 100.813C51.5867 100.773 51.64 100.733 51.6534 100.84C52.1867 102.973 56.04 101.413 56.32 105.8C56.24 105.813 55.3734 105.973 55.0267 105.56C54.88 105.387 54.24 104.627 53.4533 105.453C53.4 105.507 53.4534 105.533 53.48 105.533C54.48 105.507 54.2667 106.213 54.2267 106.347C53.56 105.8 52.5333 105.907 52.6 107.173C52.6 107.267 52.64 107.267 52.68 107.213C53.2533 106.48 53.88 107.013 53.92 107.067C53.4533 107.133 52.6 107.747 53.3867 108.747C53.4267 108.787 53.4667 108.84 53.48 108.76C53.5867 107.587 54.6267 107.96 54.84 108.08C54.9867 108.16 55.72 108.373 56.2133 107.787C56.4133 108.68 57.5333 108.587 57.64 108.573C57.72 108.573 57.72 108.52 57.6533 108.467C57.1733 108.147 56.72 107.533 57.44 107.307C57.44 107.307 58.4 108.173 59.1733 107.227C59.24 107.147 59.2 107.12 59.16 107.133C59.0667 107.16 57.9733 107.293 58.0533 106.2C58.1067 105.44 58.6667 102.853 57.6267 102.2C57.56 102.16 57.5333 102.12 57.6 102.093C58.64 101.867 58.7734 101.133 58.44 100.307C58.4 100.2 58.3333 100.227 58.3333 100.293C58.2533 101.973 55.5734 101.173 55.48 98.8267C56.92 99.2 59.3867 98.6933 59.3867 96.3467C59.3867 94.04 56.44 92.8 56.44 91.12C56.44 90.84 56.4267 89.68 57.8 89.68C58.92 89.68 59.7467 90.52 59.9733 91.4C59.9867 91.44 60.0267 91.4533 60.0667 91.4C60.2267 91.1866 60.2 90.32 59.8 89.8533C59.76 89.8133 59.8 89.72 59.8933 89.7733C60.0133 89.8533 60.4133 89.9733 60.8267 89.9733C61.7467 89.9733 62.24 89.4667 62.24 88.6267C62.24 88.1067 62.0533 87.84 62.1333 87.6667C62.1733 87.5867 62.0667 87.5333 62.0266 87.6267C61.8933 87.8933 61.6533 88.56 60.72 88.56H58.4667C55.9467 88.56 55.72 90.6 55.72 91.0933C55.72 93.16 58.3467 94.0533 58.3467 96.1467C58.3467 96.64 58.0933 97.4533 56.7467 97.4533C56.1867 97.4533 55.6 97.2933 55.2533 97.1467C55.2533 97.1467 54.6533 93.48 52.8667 92.2C52.8667 92.2 50.7867 93.2133 48.72 92.0933C47.1467 91.24 46.4 90.6666 45.0133 91.6267C43.6267 92.5867 42.4267 93.6133 42.28 93.5867L41.9467 93.52V85.2667C42.5867 85.2 42.6267 85.7733 42.6 85.92C42.56 86.1067 42.36 86.2667 42.7867 86.92C42.8267 86.9733 42.8667 86.9466 42.88 86.8933C42.8933 86.7333 42.9867 86.4533 43.2 86.4533C43.4133 86.4533 44.4 87.1867 45.24 88.0267C45.24 88.0267 45.72 86.5733 46.88 86.12C46.2267 86.0133 43.4 85.3333 43.4 84.0933C43.4 83.68 42.9333 83.5867 42.6267 83.6133C42.6133 83.5733 42.1467 82.48 41.2933 83.0533C41.2533 83.08 41.2533 83.1467 41.3067 83.16C41.6933 83.2533 41.8533 83.64 41.8667 84.0667C41.04 83.8133 37.5333 82.8267 33.3733 82.8267C31.3467 82.8267 29.4933 83.0667 28.0133 83.3333V86.1867H26.8534V83.56ZM19.1733 112.867C18.8667 112.747 18.6667 112.547 18.6667 112.133V110.36C18.16 110.187 16.7733 109.653 13.9867 109.653C11.68 109.653 10.96 110.173 10.92 110.36L10.3067 113.733C10.3067 113.733 11.24 112.88 14.5867 113.093C18.6133 113.347 22.7867 115.733 22.7867 113.187V111.693C19.64 111.707 19.1733 112.72 19.1733 112.867ZM43.96 111.707V113.2C43.96 115.733 48.1333 113.36 52.16 113.107C55.5067 112.893 56.44 113.747 56.44 113.747L55.8267 110.36C55.8 110.173 55.0667 109.653 52.76 109.653C49.9867 109.653 48.6 110.187 48.08 110.36V112.133C48.08 112.533 47.88 112.733 47.5733 112.867C47.5866 112.72 47.12 111.707 43.96 111.707ZM33.3733 110.173C39.8667 110.173 46.4533 110.507 47.3067 111.493C47.3733 111.573 47.4 111.493 47.4 111.427V107.987C47.4 106.987 40.6 106.4 33.36 106.4C26.12 106.4 19.32 106.987 19.32 107.987V111.427C19.32 111.48 19.3467 111.56 19.4133 111.493C20.3067 110.52 26.8933 110.173 33.3733 110.173ZM27.5867 93.96L26.9333 93.7867L26.88 93.8667L26.12 93.5333H26.8C26.8667 93.5333 26.8667 93.4933 26.84 93.4667C26.5333 93.16 26.2533 92.8933 26.2533 92.8933C26.2533 92.8933 26.56 93.0133 27 93.1733C27.0533 93.1867 27.0667 93.16 27.04 93.12C26.8267 92.8133 26.5333 92.3867 26.5333 92.3867C26.5333 92.3867 27.1467 92.8 27.2667 92.88C27.3067 92.9067 27.3333 92.88 27.32 92.84C27.16 92.44 26.9733 91.9733 26.9733 91.9733L27.64 92.6133C27.6667 92.64 27.7066 92.6267 27.6933 92.5867C27.6267 92.28 27.5067 91.72 27.5067 91.72L28 92.44C28.0267 92.48 28.0666 92.4667 28.0666 92.4267C28.0666 92.28 28.08 91.64 28.08 91.64C28.08 91.64 28.2933 92.12 28.3867 92.36C28.4133 92.4133 28.44 92.4133 28.4667 92.3467C28.4933 92.2667 28.72 91.7333 28.72 91.7333L28.7467 92.56L28.64 92.5867L28.5067 93.5733C29.48 93.3467 30.7067 91.6667 31.64 91.6667C32.76 91.6667 33.16 92.9733 35.2133 92.3067C35.7333 93.08 35.92 93.7467 36.12 94.6667C36.92 95.4133 38.0267 95.16 38.0267 94.3733C38.0267 93.3067 36.8667 93.1067 36.8667 91.9867C36.8667 91.4933 37.2133 90.7733 38.16 90.7733C38.6667 90.7733 39.4 90.9867 39.8267 90.9867C40.3333 90.9867 40.44 90.6267 40.4933 90.4667C40.5333 90.36 40.68 90.3867 40.6667 90.48C40.6533 90.5867 40.72 90.7333 40.72 90.9733C40.72 91.68 39.6933 91.7733 39.5733 91.68C39.52 91.64 39.48 91.6933 39.52 91.7333C39.68 91.8533 39.64 92.28 39.4533 92.5467C39.4267 92.5733 39.4 92.5733 39.4 92.5467C39.2933 92.04 38.6933 91.4133 38.1733 91.4133C37.9867 91.4133 37.6 91.52 37.6 91.9733C37.6 92.6 38.8667 93.1867 38.8667 94.4933C38.8667 95.8533 37.52 96.1867 36.16 95.84C36.2 97.1333 38.1333 97.8933 38.1733 96.9733C38.1733 96.9067 38.2133 96.9467 38.2267 96.9733C38.5067 97.3733 38.3867 97.6667 38.0133 97.8267C38.3467 97.9733 38.4133 98.6533 38.5067 99.0667C38.6533 99.68 39.2933 99.3333 39.3333 99.32C39.3733 99.2933 39.3867 99.32 39.36 99.36C39.12 99.9867 38.4667 99.7467 38.4667 99.7467C38.1333 99.9867 38.5333 100.2 38.84 100.293C38.88 100.307 38.88 100.333 38.8534 100.36C38.6267 100.44 38.1467 100.6 37.9067 100.187C37.7333 100.613 37.3733 100.6 37.24 100.6C36.9867 100.6 36.8267 100.853 36.88 101.2C36.88 101.227 36.8667 101.24 36.84 101.227C36.2533 100.84 36.5867 100.373 36.8267 100.253C36.7867 100.227 36.3733 100.053 36.2 100.533C36.1867 100.573 36.16 100.573 36.1467 100.533C35.8934 99.84 36.4533 99.64 36.8534 99.8133C36.8267 99.72 36.6133 99.3733 36.08 99.4933C36.0533 99.5067 36.04 99.4933 36.0533 99.4533C36.1467 99.24 36.4 98.9333 36.8933 99.24C37.1467 99.4 37.5733 99.1733 37.6133 99.1467C36.7467 97.4267 35.08 98.8667 34.6933 97.52C34.68 97.4933 34.6533 97.4667 34.6267 97.5467C34.5333 97.8267 33.8 97.8533 33.6667 97.2933C33.6533 97.2533 33.6667 97.24 33.7067 97.2667C33.8133 97.3733 34.04 97.4667 34.3467 97.04C34.5467 96.7467 34.5733 96.36 34.5733 96.1067C34.5733 95.0667 33.5333 93.3067 31.9067 93.3067C30.88 93.3067 29.7733 93.7067 28.9467 94.3067L29.7067 94.48C29.64 95.2533 28.8933 95.7067 28.2133 95.5067L28.3333 94.6267C28.2133 94.6666 27.92 94.7733 27.76 95C27.7467 95.0133 27.72 95.0133 27.72 94.9866C27.5867 94.48 28 94.2266 28.12 94.1733C28.1289 94.1644 28.1245 94.16 28.1067 94.16C27.7334 94.1466 27.5333 94.4133 27.4667 94.5066C27.4533 94.52 27.44 94.52 27.44 94.5066C27.48 94.4 27.4133 94.1467 27.5867 93.96ZM29.8667 99.9333C29.5733 100.293 29.32 99.9467 28.9333 99.9467C28.5733 99.9467 28.5067 100.253 28.5067 100.373C28.5067 100.4 28.4933 100.4 28.48 100.387C28.0666 99.8267 28.5333 99.52 28.8 99.48C28.76 99.44 28.36 99.1733 28.1066 99.5467C28.0933 99.5733 28.0666 99.56 28.0666 99.5333C28.0533 98.84 28.6 98.7867 28.9733 99.0933C29.04 98.8267 28.8667 98.6533 28.5733 98.64C28.5333 98.64 28.5333 98.6133 28.5467 98.6C28.6667 98.4667 28.7867 98.4133 28.9067 98.4133C29.2933 98.4133 29.3467 98.9067 29.6 98.9067C29.9733 98.9067 30.52 98.4 30.56 98.3467C30.5466 98.32 30.1867 97.3333 30.2533 96.7467C30.2533 96.72 30.24 96.72 30.2266 96.7333C30.04 96.84 29.5867 96.8267 29.5867 96.2667C29.5867 96.2267 29.6 96.2133 29.6267 96.2533C29.8267 96.5333 30.16 96.2133 30.32 96.0267C30.4933 95.8267 31.4533 94.44 32.72 94.44C33 94.44 33.36 94.6 33.6533 94.8C33.2133 95.3333 33.6533 95.84 33.9733 95.7733C34.0133 95.76 34.0133 95.8 33.9867 95.8133C32.3067 96.44 31.56 96.6933 31.56 98.1067C31.56 98.84 31.8133 99.2533 32.24 99.1467C32.2667 99.1333 32.28 99.1467 32.2533 99.1733C32.0933 99.36 31.92 99.4267 31.7733 99.4267C31.4266 99.4267 31.36 99.24 31.1733 99.24C30.9867 99.24 30.36 99.6133 30.36 99.92C30.36 100.04 30.44 100.2 30.6533 100.333C30.6667 100.347 30.6533 100.36 30.6533 100.36C30.4667 100.36 29.9733 100.4 29.8667 99.9333ZM34.28 86.2667C33.76 86.24 33.4133 86.3467 33.44 86.52C33.6933 86.7867 34.0267 86.76 34.28 86.2667ZM32.3467 87.56C32.72 87.4667 33.12 87.5067 33.1733 87.52C33.2267 87.5333 33.2267 87.6267 33.16 87.64C32.3867 87.7333 32.3467 88.0933 31.8534 88.0933C31.5334 88.0933 31.1733 87.76 31.3067 87.28C31.32 87.2133 31.3733 87.2133 31.3867 87.28C31.44 87.4933 31.7467 87.72 32.3467 87.56ZM22.3067 104.707C22.8133 105.36 23.3067 104.747 23.9867 104.747C24.32 104.747 24.72 104.853 24.7867 105.52C24.7867 105.56 24.8133 105.56 24.8533 105.52C25.5866 104.52 24.7467 103.96 24.2667 103.88C24.3733 103.787 25.08 103.347 25.5467 104C25.5733 104.04 25.6267 104.027 25.6267 103.973C25.6267 102.707 24.68 102.613 23.9867 103.16C23.8533 102.667 24.2267 102.347 24.7067 102.347C24.76 102.347 24.7867 102.307 24.76 102.28C23.9067 101.373 23.28 102.52 23.1333 102.693C22.8 103.147 21.5867 102.293 21.0933 101.787C21.0933 101.787 22.16 100.667 22.16 99.64C22.16 99.5733 22.1467 99.4933 22.1467 99.4533C22.1467 99.4266 22.16 99.4133 22.1867 99.4266C22.2934 99.4933 22.44 99.5333 22.5867 99.5333C22.8267 99.5333 23.2933 99.4533 23.2933 98.5867C23.2933 98.52 23.2667 98.52 23.24 98.56C23.1067 98.7467 22.9733 98.7867 22.8667 98.7867C22 98.7867 20.2 95.9067 18.0666 95.9067C17.5066 95.9067 16.4533 96.3067 15.9333 96.88C16.1867 97.0267 16.24 97.3467 16.2133 97.5733C16.1733 97.9333 15.88 98.12 15.5867 98.2C15.5333 98.2133 15.5333 98.2533 15.5867 98.28C16.6667 98.6933 18.6133 99.4266 19.0666 99.8133C19.5866 100.267 19.4933 101.12 19.1866 102.307C18.8933 103.44 18.2667 103.293 18.0267 103.253C17.9867 103.253 17.9867 103.267 18 103.293C18.28 103.64 18.6133 103.76 18.9067 103.76C19.4667 103.76 19.68 103.413 19.96 103.413C20.44 103.413 21.4667 104.107 21.4667 104.64C21.4667 104.933 21.24 105.213 20.9333 105.4C20.92 105.413 20.92 105.44 20.9467 105.44C21.1733 105.48 22.12 105.56 22.3067 104.707ZM45.8133 105.44C45.84 105.44 45.8533 105.413 45.8267 105.4C45.5333 105.2 45.2933 104.933 45.2933 104.64C45.2933 104.107 46.3067 103.413 46.8 103.413C47.0933 103.413 47.2933 103.76 47.8534 103.76C48.1467 103.76 48.48 103.64 48.76 103.293C48.7867 103.267 48.7733 103.24 48.7333 103.253C48.5067 103.293 47.8667 103.44 47.5733 102.307C47.2667 101.12 47.16 100.267 47.6933 99.8133C48.1333 99.4267 50.0933 98.6933 51.1733 98.28C51.2267 98.2533 51.2267 98.2133 51.1733 98.2C50.88 98.12 50.5867 97.9333 50.5467 97.5733C50.52 97.3467 50.5733 97.04 50.8267 96.88C50.2933 96.3067 49.24 95.9067 48.68 95.9067C46.5467 95.9067 44.7467 98.7867 43.88 98.7867C43.7733 98.7867 43.6267 98.7467 43.5067 98.56C43.48 98.52 43.4533 98.52 43.4533 98.5867C43.4533 99.4533 43.92 99.5333 44.16 99.5333C44.2933 99.5333 44.4534 99.4933 44.56 99.4267C44.5867 99.4133 44.6 99.4267 44.6 99.4533C44.6 99.4933 44.5867 99.5733 44.5867 99.64C44.5867 100.667 45.6533 101.787 45.6533 101.787C45.1733 102.293 43.96 103.133 43.6133 102.693C43.4667 102.507 42.84 101.373 41.9867 102.28C41.96 102.32 41.9733 102.347 42.04 102.347C42.52 102.347 42.8933 102.667 42.76 103.16C42.0667 102.613 41.12 102.707 41.12 103.973C41.12 104.027 41.1733 104.04 41.2 104C41.6533 103.347 42.3733 103.787 42.4667 103.88C41.9867 103.947 41.16 104.52 41.88 105.52C41.9067 105.56 41.9333 105.56 41.9467 105.52C42.0267 104.867 42.4267 104.747 42.7467 104.747C43.4133 104.747 43.9067 105.36 44.4267 104.707C44.64 105.56 45.5866 105.48 45.8133 105.44ZM28.6 88.8133C28.5333 88.9067 28.3067 88.8133 28.2267 88.7733C28.2133 88.76 28.2 88.7733 28.2133 88.7867C28.2667 88.9067 28.48 89.2667 28.8 89.2667C28.9467 89.2667 29.16 89.1867 29.2133 89.08C29.2133 89.08 30.4667 89.4933 31.08 89.6533C30.84 89.9733 30.6933 90.36 30.6533 90.7733C30.16 90.4667 28.16 89.4 28.16 89.4L27.5467 90.2533C27.44 90.3867 26.9467 90.0267 27.0533 89.8933L27.52 89.24C27.36 89.08 26.9867 89.1733 26.88 89.2133C26.8667 89.2133 26.8533 89.2133 26.8667 89.1867C26.9333 89.0533 27.16 88.6667 27.7467 88.84C27.7467 88.48 27.2133 88.6 27.0666 88.64C27.0533 88.64 27.04 88.64 27.0533 88.6267C27.2 88.4667 27.64 88.12 28.12 88.4133L28.3333 88.12L27.9067 87.6667L28.1733 87.2933L28.48 87.6933L30.7867 84.5333C30.84 84.4533 31.3067 84.32 31.4667 84.28C31.48 84.4533 31.5067 84.9333 31.4533 85.0133L29.1866 88.2L29.6667 88.36L29.4 88.7334L28.84 88.4667L28.6 88.8133ZM36.6933 88.2933C36.6933 88.5867 36.8667 89.0133 37.2533 88.88C37.2667 88.8667 37.2933 88.88 37.28 88.8933C37.2267 89.2133 36.64 89.5067 36.3867 89.1333C36.1467 89.6267 36.2133 90.0933 36.7067 90.36C36.7333 90.3733 36.7333 90.4133 36.7067 90.44C36.4 90.6533 35.9333 90.6133 35.72 90.1867C35.3067 90.4933 35.36 91.16 35.6133 91.3867C35.6133 91.3867 34.4667 92.0667 33.4267 91.5867C32.7333 91.2533 32.1733 90.8267 31.28 90.9067C31.4 89.6533 32.0267 89.3333 33.1733 89.1467C34.0933 89 34.2 88.5733 34.08 88.2533C33.7733 88.1733 33.2 88.4533 33.2 88.4533C33.0933 88.28 33.24 88.1067 33.24 88.1067C33.1867 88.04 33.16 87.8133 33.16 87.8133C33.8 87.8133 33.92 87.6667 33.92 87.6667C34.04 87 33.36 86.9333 32.84 87.2933C32.6 87.08 32.64 86.8 32.64 86.8C32.5733 86.76 32.52 86.6533 32.52 86.6C32.52 86.44 33.28 86.0133 33.48 85.96C33.5334 85.7333 33.8 85.4266 34.6133 85.5067C34.7067 85.2933 34.5467 84.5067 34.4533 84.3067C34.4267 84.24 34.4667 84.2133 34.5333 84.2533C34.8133 84.4267 35.0933 85.0933 35.2933 85.1067C35.2933 85.1067 36.2 84.6267 36.24 84.6533C36.28 84.68 36.4133 85.6933 36.4133 85.6933C36.5333 85.84 37.24 85.6933 37.5467 85.8267C37.6267 85.8667 37.6267 85.92 37.5467 85.9333C37.32 85.9733 36.5867 86.2933 36.4667 86.4933C36.8933 87.12 36.6933 88.04 36.6933 88.2933Z" fill="white"/>
<path d="M83.2018 86.3633L83.7825 73.2435H87.4218L90.1224 81.3034H90.2226L92.9817 73.2435H96.4218L97.0026 86.3633H94.6823L94.2825 75.4635H94.1627L91.2617 83.8229H88.802L85.8828 75.4635H85.7617L85.3619 86.3633H83.2018Z" fill="#154273"/>
<path d="M100.823 74.8828C100.422 74.8828 100.103 74.7695 99.8619 74.543C99.6224 74.3164 99.5026 74.0104 99.5026 73.6237C99.5026 73.2226 99.6224 72.9062 99.8619 72.6732C100.103 72.4401 100.422 72.3229 100.823 72.3229C101.249 72.3229 101.573 72.4401 101.793 72.6732C102.013 72.9062 102.122 73.2226 102.122 73.6237C102.122 74.0104 102.013 74.3164 101.793 74.543C101.573 74.7695 101.249 74.8828 100.823 74.8828ZM99.7226 86.3633V76.5039L101.943 76.3633V86.3633H99.7226Z" fill="#154273"/>
<path d="M104.609 86.3633V76.5039L106.75 76.4036V77.1029C107.176 76.8229 107.6 76.6237 108.02 76.5039C108.44 76.3828 108.91 76.3229 109.43 76.3229C110.51 76.3229 111.346 76.6211 111.94 77.2174C112.533 77.8125 112.829 78.6862 112.829 79.8372V86.3633H110.609V80.2331C110.609 79.6432 110.453 79.1836 110.139 78.8555C109.827 78.5273 109.37 78.3633 108.77 78.3633C108.396 78.3633 108.07 78.3906 107.79 78.4427C107.51 78.4961 107.19 78.5898 106.829 78.7226V86.3633H104.609Z" fill="#154273"/>
<path d="M116.474 74.8828C116.074 74.8828 115.754 74.7695 115.514 74.543C115.275 74.3164 115.154 74.0104 115.154 73.6237C115.154 73.2226 115.275 72.9062 115.514 72.6732C115.754 72.4401 116.074 72.3229 116.474 72.3229C116.901 72.3229 117.224 72.4401 117.444 72.6732C117.664 72.9062 117.775 73.2226 117.775 73.6237C117.775 74.0104 117.664 74.3164 117.444 74.543C117.224 74.7695 116.901 74.8828 116.474 74.8828ZM115.374 86.3633V76.5039L117.594 76.3633V86.3633H115.374Z" fill="#154273"/>
<path d="M122.488 86.543C121.901 86.543 121.382 86.5195 120.928 86.4726C120.474 86.4258 120.048 86.3568 119.648 86.263V84.3034C120.128 84.4362 120.604 84.5299 121.078 84.5833C121.551 84.6367 122.021 84.6627 122.488 84.6627C123.168 84.6627 123.655 84.5638 123.948 84.3659C124.241 84.1667 124.388 83.9101 124.388 83.595C124.388 83.3255 124.281 83.1002 124.068 82.918C123.854 82.7357 123.48 82.5716 122.948 82.4232L121.788 82.0599C121.108 81.8581 120.585 81.5443 120.217 81.1198C119.852 80.6966 119.668 80.1341 119.668 79.4336C119.668 78.8281 119.831 78.293 120.158 77.8281C120.484 77.3633 120.951 76.9961 121.559 76.7279C122.164 76.4583 122.895 76.3229 123.747 76.3229C124.228 76.3229 124.664 76.3398 125.059 76.3737C125.451 76.4062 125.822 76.457 126.168 76.5234L126.008 78.4036C125.608 78.3372 125.23 78.2904 124.878 78.263C124.525 78.237 124.134 78.2226 123.708 78.2226C123.042 78.2226 122.568 78.3164 122.288 78.5013C122.008 78.6862 121.868 78.9232 121.868 79.2109C121.868 79.4805 121.958 79.6966 122.138 79.8581C122.318 80.0195 122.641 80.1601 123.108 80.2825L124.268 80.5846C125.042 80.8008 125.621 81.1237 126.008 81.5547C126.395 81.9857 126.589 82.5443 126.589 83.2305C126.589 83.9036 126.421 84.4896 126.089 84.9883C125.754 85.487 125.285 85.8698 124.678 86.1393C124.072 86.4088 123.341 86.543 122.488 86.543Z" fill="#154273"/>
<path d="M132.146 86.543C131.546 86.543 131.016 86.4297 130.555 86.2018C130.095 85.974 129.736 85.6159 129.475 85.1263C129.215 84.638 129.085 84.0039 129.085 83.2279V78.2031H127.905V76.5039H129.085V74.7031L131.285 74.5039V76.5039H133.805V78.2031H131.285V82.9727C131.285 83.5365 131.422 83.9531 131.695 84.2214C131.969 84.4896 132.332 84.6237 132.785 84.6237C133.025 84.6237 133.238 84.6068 133.426 84.5729C133.612 84.5404 133.825 84.4961 134.065 84.4427V86.3034C133.758 86.3828 133.456 86.4427 133.155 86.4831C132.855 86.5234 132.518 86.543 132.146 86.543Z" fill="#154273"/>
<path d="M140.044 86.543C138.536 86.543 137.346 86.1289 136.474 85.2982C135.6 84.4687 135.164 83.1966 135.164 81.4831C135.164 80.3463 135.357 79.3958 135.743 78.6328C136.13 77.8698 136.66 77.2943 137.333 76.9062C138.007 76.5182 138.75 76.3229 139.564 76.3229C140.376 76.3229 141.077 76.4805 141.664 76.7956C142.25 77.1094 142.701 77.5651 143.014 78.1601C143.327 78.7552 143.483 79.4818 143.483 80.3372C143.483 80.6315 143.48 80.9167 143.474 81.1914C143.467 81.4648 143.451 81.7226 143.423 81.9635H137.344C137.397 82.5677 137.547 83.0677 137.794 83.4648C138.04 83.8607 138.376 84.1562 138.803 84.3516C139.23 84.5456 139.73 84.6432 140.303 84.6432C140.863 84.6432 141.37 84.6029 141.824 84.5221C142.277 84.4414 142.743 84.3138 143.224 84.1393V85.9818C142.717 86.1693 142.224 86.3099 141.743 86.4036C141.264 86.4961 140.697 86.543 140.044 86.543ZM137.324 80.3437H141.303C141.303 79.6172 141.137 79.056 140.803 78.6588C140.47 78.2617 140.01 78.0638 139.423 78.0638C138.891 78.0638 138.43 78.2656 138.044 78.668C137.656 79.0729 137.417 79.6302 137.324 80.3437Z" fill="#154273"/>
<path d="M145.695 86.3633V76.5039L147.895 76.4036V77.5234C148.242 77.0833 148.582 76.7734 148.915 76.5937C149.249 76.4128 149.595 76.3229 149.954 76.3229C150.195 76.3229 150.398 76.3333 150.565 76.3529C150.732 76.3737 150.915 76.4101 151.115 76.4635L150.954 78.6029C150.742 78.5364 150.546 78.4935 150.365 78.4726C150.185 78.4531 149.988 78.4427 149.775 78.4427C149.454 78.4427 149.151 78.5 148.865 78.6133C148.578 78.7266 148.262 78.9167 147.915 79.1836V86.3633H145.695Z" fill="#154273"/>
<path d="M153.684 74.8828C153.283 74.8828 152.964 74.7695 152.723 74.543C152.483 74.3164 152.363 74.0104 152.363 73.6237C152.363 73.2226 152.483 72.9062 152.723 72.6732C152.964 72.4401 153.283 72.3229 153.684 72.3229C154.109 72.3229 154.434 72.4401 154.654 72.6732C154.874 72.9062 154.983 73.2226 154.983 73.6237C154.983 74.0104 154.874 74.3164 154.654 74.543C154.434 74.7695 154.109 74.8828 153.684 74.8828ZM152.583 86.3633V76.5039L154.803 76.3633V86.3633H152.583Z" fill="#154273"/>
<path d="M161.868 86.543C160.362 86.543 159.172 86.1289 158.298 85.2982C157.426 84.4687 156.988 83.1966 156.988 81.4831C156.988 80.3463 157.182 79.3958 157.569 78.6328C157.956 77.8698 158.486 77.2943 159.159 76.9062C159.832 76.5182 160.576 76.3229 161.388 76.3229C162.202 76.3229 162.902 76.4805 163.488 76.7956C164.076 77.1094 164.525 77.5651 164.839 78.1601C165.152 78.7552 165.309 79.4818 165.309 80.3372C165.309 80.6315 165.305 80.9167 165.298 81.1914C165.292 81.4648 165.275 81.7226 165.249 81.9635H159.168C159.221 82.5677 159.371 83.0677 159.618 83.4648C159.865 83.8607 160.202 84.1562 160.629 84.3516C161.055 84.5456 161.555 84.6432 162.129 84.6432C162.689 84.6432 163.195 84.6029 163.648 84.5221C164.102 84.4414 164.569 84.3138 165.048 84.1393V85.9818C164.542 86.1693 164.048 86.3099 163.569 86.4036C163.089 86.4961 162.522 86.543 161.868 86.543ZM159.148 80.3437H163.129C163.129 79.6172 162.962 79.056 162.629 78.6588C162.296 78.2617 161.835 78.0638 161.249 78.0638C160.715 78.0638 160.255 78.2656 159.868 78.668C159.482 79.0729 159.242 79.6302 159.148 80.3437Z" fill="#154273"/>
<path d="M173.388 86.3633L170.249 76.5039H172.789L174.949 84.5872H175.069L177.268 76.5039H179.569L176.409 86.3633H173.388Z" fill="#154273"/>
<path d="M183.596 86.543C182.596 86.543 181.823 86.2877 181.276 85.7786C180.729 85.2682 180.456 84.6042 180.456 83.7851C180.456 82.8711 180.819 82.1237 181.547 81.5391C182.273 80.9557 183.417 80.6627 184.977 80.6627H185.667C185.872 80.6627 186.09 80.6706 186.316 80.6836V79.944C186.316 79.4388 186.15 79.0417 185.816 78.7539C185.483 78.4674 184.936 78.3229 184.176 78.3229C183.229 78.3229 182.276 78.5234 181.316 78.9232L180.996 77.0638C181.596 76.8099 182.173 76.6237 182.727 76.5039C183.28 76.3828 183.883 76.3229 184.536 76.3229C185.857 76.3229 186.84 76.6211 187.487 77.2174C188.133 77.8125 188.456 78.6667 188.456 79.7773V86.3633H186.396V85.7838C185.97 86.0508 185.543 86.2435 185.116 86.3633C184.69 86.4831 184.182 86.543 183.596 86.543ZM184.197 84.763C184.609 84.763 184.983 84.72 185.316 84.6328C185.65 84.5469 185.983 84.4167 186.316 84.2435V82.3034C186.09 82.2904 185.879 82.2799 185.686 82.2734C185.493 82.2669 185.263 82.263 184.996 82.263C184.182 82.263 183.607 82.3919 183.267 82.6497C182.926 82.9062 182.756 83.2187 182.756 83.5846C182.756 83.9505 182.876 84.2383 183.116 84.4479C183.357 84.6588 183.716 84.763 184.197 84.763Z" fill="#154273"/>
<path d="M191.046 86.3633V76.5039L193.186 76.4036V77.1029C193.612 76.8229 194.036 76.6237 194.456 76.5039C194.876 76.3828 195.346 76.3229 195.866 76.3229C196.947 76.3229 197.783 76.6211 198.376 77.2174C198.969 77.8125 199.266 78.6862 199.266 79.8372V86.3633H197.046V80.2331C197.046 79.6432 196.889 79.1836 196.575 78.8555C196.263 78.5273 195.806 78.3633 195.206 78.3633C194.832 78.3633 194.506 78.3906 194.227 78.4427C193.947 78.4961 193.626 78.5898 193.266 78.7226V86.3633H191.046Z" fill="#154273"/>
<path d="M206.286 86.3633V73.2435H210.105C211.665 73.2435 212.816 73.5338 213.556 74.1133C214.295 74.6927 214.665 75.4635 214.665 76.4232C214.665 77.2226 214.492 77.8698 214.146 78.3633C213.799 78.8568 213.332 79.2096 212.746 79.4232V79.4831C213.545 79.6562 214.156 80 214.575 80.513C214.996 81.0273 215.206 81.6627 215.206 82.4232C215.206 83.6627 214.795 84.6302 213.975 85.3229C213.156 86.0169 211.932 86.3633 210.306 86.3633H206.286ZM208.586 78.7838H209.885C210.686 78.7838 211.279 78.6263 211.665 78.3138C212.052 78 212.246 77.5169 212.246 76.8633C212.246 76.3034 212.066 75.8737 211.706 75.5729C211.346 75.2734 210.759 75.1237 209.945 75.1237H208.586V78.7838ZM208.586 84.4831H210.225C211.066 84.4831 211.702 84.3073 212.135 83.9531C212.569 83.6002 212.786 83.1028 212.786 82.4635C212.786 81.8502 212.575 81.3802 212.156 81.0534C211.736 80.7265 210.986 80.5638 209.906 80.5638H208.586V84.4831Z" fill="#154273"/>
<path d="M218.549 74.8828C218.15 74.8828 217.829 74.7695 217.59 74.543C217.35 74.3164 217.229 74.0104 217.229 73.6237C217.229 73.2226 217.35 72.9062 217.59 72.6732C217.829 72.4401 218.15 72.3229 218.549 72.3229C218.977 72.3229 219.299 72.4401 219.519 72.6732C219.74 72.9062 219.85 73.2226 219.85 73.6237C219.85 74.0104 219.74 74.3164 219.519 74.543C219.299 74.7695 218.977 74.8828 218.549 74.8828ZM217.449 86.3633V76.5039L219.669 76.3633V86.3633H217.449Z" fill="#154273"/>
<path d="M222.333 86.3633V76.5039L224.473 76.4036V77.1029C224.9 76.8229 225.323 76.6237 225.743 76.5039C226.163 76.3828 226.633 76.3229 227.154 76.3229C228.233 76.3229 229.069 76.6211 229.663 77.2174C230.256 77.8125 230.553 78.6862 230.553 79.8372V86.3633H228.333V80.2331C228.333 79.6432 228.176 79.1836 227.863 78.8555C227.549 78.5273 227.092 78.3633 226.493 78.3633C226.12 78.3633 225.793 78.3906 225.513 78.4427C225.233 78.4961 224.913 78.5898 224.553 78.7226V86.3633H222.333Z" fill="#154273"/>
<path d="M233.117 86.3633V76.5039L235.258 76.4036V77.1029C235.684 76.8229 236.108 76.6237 236.527 76.5039C236.948 76.3828 237.418 76.3229 237.937 76.3229C239.018 76.3229 239.854 76.6211 240.448 77.2174C241.04 77.8125 241.337 78.6862 241.337 79.8372V86.3633H239.117V80.2331C239.117 79.6432 238.961 79.1836 238.647 78.8555C238.335 78.5273 237.878 78.3633 237.277 78.3633C236.904 78.3633 236.578 78.3906 236.298 78.4427C236.018 78.4961 235.698 78.5898 235.337 78.7226V86.3633H233.117Z" fill="#154273"/>
<path d="M248.311 86.543C246.805 86.543 245.615 86.1289 244.741 85.2982C243.868 84.4687 243.431 83.1966 243.431 81.4831C243.431 80.3463 243.625 79.3958 244.012 78.6328C244.398 77.8698 244.928 77.2943 245.601 76.9062C246.275 76.5182 247.018 76.3229 247.831 76.3229C248.644 76.3229 249.345 76.4805 249.931 76.7956C250.518 77.1094 250.967 77.5651 251.281 78.1601C251.595 78.7552 251.751 79.4818 251.751 80.3372C251.751 80.6315 251.747 80.9167 251.741 81.1914C251.734 81.4648 251.717 81.7226 251.691 81.9635H245.611C245.664 82.5677 245.814 83.0677 246.061 83.4648C246.307 83.8607 246.644 84.1562 247.072 84.3516C247.497 84.5456 247.997 84.6432 248.572 84.6432C249.131 84.6432 249.638 84.6029 250.091 84.5221C250.544 84.4414 251.012 84.3138 251.491 84.1393V85.9818C250.984 86.1693 250.491 86.3099 250.012 86.4036C249.531 86.4961 248.965 86.543 248.311 86.543ZM245.591 80.3437H249.572C249.572 79.6172 249.405 79.056 249.072 78.6588C248.738 78.2617 248.277 78.0638 247.691 78.0638C247.157 78.0638 246.698 78.2656 246.311 78.668C245.924 79.0729 245.685 79.6302 245.591 80.3437Z" fill="#154273"/>
<path d="M253.964 86.3633V76.5039L256.103 76.4036V77.1029C256.53 76.8229 256.953 76.6237 257.374 76.5039C257.793 76.3828 258.263 76.3229 258.784 76.3229C259.863 76.3229 260.699 76.6211 261.293 77.2174C261.887 77.8125 262.184 78.6862 262.184 79.8372V86.3633H259.964V80.2331C259.964 79.6432 259.806 79.1836 259.493 78.8555C259.18 78.5273 258.723 78.3633 258.124 78.3633C257.75 78.3633 257.423 78.3906 257.143 78.4427C256.863 78.4961 256.543 78.5898 256.184 78.7226V86.3633H253.964Z" fill="#154273"/>
<path d="M264.751 86.3633V72.4635L266.971 72.3438V86.3633H264.751Z" fill="#154273"/>
<path d="M272.055 86.543C271.055 86.543 270.281 86.2877 269.734 85.7786C269.188 85.2682 268.914 84.6042 268.914 83.7851C268.914 82.8711 269.277 82.1237 270.005 81.5391C270.732 80.9557 271.875 80.6627 273.435 80.6627H274.125C274.331 80.6627 274.548 80.6706 274.775 80.6836V79.944C274.775 79.4388 274.608 79.0417 274.275 78.7539C273.941 78.4674 273.395 78.3229 272.634 78.3229C271.687 78.3229 270.734 78.5234 269.775 78.9232L269.454 77.0638C270.055 76.8099 270.632 76.6237 271.185 76.5039C271.738 76.3828 272.341 76.3229 272.995 76.3229C274.315 76.3229 275.298 76.6211 275.945 77.2174C276.591 77.8125 276.914 78.6667 276.914 79.7773V86.3633H274.854V85.7838C274.428 86.0508 274.001 86.2435 273.574 86.3633C273.148 86.4831 272.641 86.543 272.055 86.543ZM272.655 84.763C273.068 84.763 273.441 84.72 273.775 84.6328C274.108 84.5469 274.441 84.4167 274.775 84.2435V82.3034C274.548 82.2904 274.337 82.2799 274.145 82.2734C273.952 82.2669 273.721 82.263 273.454 82.263C272.641 82.263 272.065 82.3919 271.725 82.6497C271.384 82.9062 271.215 83.2187 271.215 83.5846C271.215 83.9505 271.335 84.2383 271.574 84.4479C271.815 84.6588 272.174 84.763 272.655 84.763Z" fill="#154273"/>
<path d="M279.505 86.3633V76.5039L281.644 76.4036V77.1029C282.072 76.8229 282.495 76.6237 282.915 76.5039C283.335 76.3828 283.805 76.3229 284.325 76.3229C285.405 76.3229 286.241 76.6211 286.835 77.2174C287.428 77.8125 287.725 78.6862 287.725 79.8372V86.3633H285.505V80.2331C285.505 79.6432 285.348 79.1836 285.035 78.8555C284.721 78.5273 284.264 78.3633 283.665 78.3633C283.292 78.3633 282.965 78.3906 282.685 78.4427C282.405 78.4961 282.085 78.5898 281.725 78.7226V86.3633H279.505Z" fill="#154273"/>
<path d="M293.966 86.543C293.139 86.543 292.413 86.362 291.786 85.9974C291.16 85.6341 290.669 85.0924 290.316 84.3724C289.963 83.6523 289.786 82.7591 289.786 81.6953C289.786 80.5651 290.01 79.599 290.457 78.7982C290.904 77.9961 291.517 77.3841 292.297 76.9596C293.077 76.5352 293.96 76.3229 294.947 76.3229C295.226 76.3229 295.483 76.3333 295.716 76.3529C295.95 76.3737 296.167 76.4167 296.367 76.4831V72.4635L298.587 72.3438V86.3633H296.447V85.763C296.1 86.0039 295.71 86.1927 295.277 86.3333C294.844 86.4727 294.406 86.543 293.966 86.543ZM294.547 84.6029C294.919 84.6029 295.243 84.5664 295.517 84.4935C295.79 84.4206 296.079 84.3034 296.387 84.1432V78.3437C296.147 78.3034 295.91 78.2734 295.677 78.2539C295.443 78.2331 295.193 78.2227 294.927 78.2227C294.353 78.2227 293.85 78.3516 293.417 78.6094C292.983 78.8672 292.647 79.2422 292.406 79.737C292.167 80.2318 292.047 80.8307 292.047 81.5352C292.047 82.5924 292.277 83.3672 292.737 83.862C293.197 84.3555 293.799 84.6029 294.547 84.6029Z" fill="#154273"/>
<path d="M303.53 86.543C302.944 86.543 302.423 86.5195 301.97 86.4726C301.517 86.4258 301.09 86.3568 300.69 86.263V84.3034C301.171 84.4362 301.647 84.5299 302.12 84.5833C302.594 84.6367 303.064 84.6627 303.53 84.6627C304.211 84.6627 304.697 84.5638 304.991 84.3659C305.284 84.1667 305.43 83.9101 305.43 83.595C305.43 83.3255 305.323 83.1002 305.111 82.918C304.897 82.7357 304.523 82.5716 303.991 82.4232L302.831 82.0599C302.15 81.8581 301.626 81.5443 301.26 81.1198C300.893 80.6966 300.711 80.1341 300.711 79.4336C300.711 78.8281 300.874 78.293 301.2 77.8281C301.527 77.3633 301.993 76.9961 302.6 76.7279C303.207 76.4583 303.937 76.3229 304.79 76.3229C305.271 76.3229 305.707 76.3398 306.1 76.3737C306.493 76.4062 306.863 76.457 307.211 76.5234L307.051 78.4036C306.65 78.3372 306.273 78.2904 305.921 78.263C305.566 78.237 305.177 78.2226 304.75 78.2226C304.083 78.2226 303.611 78.3164 303.331 78.5013C303.051 78.6862 302.91 78.9232 302.91 79.2109C302.91 79.4805 303 79.6966 303.18 79.8581C303.361 80.0195 303.684 80.1601 304.15 80.2825L305.31 80.5846C306.083 80.8008 306.664 81.1237 307.051 81.5547C307.437 81.9857 307.63 82.5443 307.63 83.2305C307.63 83.9036 307.464 84.4896 307.13 84.9883C306.797 85.487 306.327 85.8698 305.72 86.1393C305.113 86.4088 304.383 86.543 303.53 86.543Z" fill="#154273"/>
<path d="M314.138 86.543C312.632 86.543 311.441 86.1289 310.568 85.2982C309.695 84.4687 309.258 83.1966 309.258 81.4831C309.258 80.3463 309.452 79.3958 309.839 78.6328C310.225 77.8698 310.755 77.2943 311.428 76.9062C312.102 76.5182 312.845 76.3229 313.658 76.3229C314.471 76.3229 315.172 76.4805 315.758 76.7956C316.345 77.1094 316.794 77.5651 317.108 78.1601C317.422 78.7552 317.578 79.4818 317.578 80.3372C317.578 80.6315 317.574 80.9167 317.568 81.1914C317.561 81.4648 317.544 81.7226 317.518 81.9635H311.437C311.491 82.5677 311.641 83.0677 311.888 83.4648C312.134 83.8607 312.471 84.1562 312.898 84.3516C313.324 84.5456 313.824 84.6432 314.398 84.6432C314.958 84.6432 315.465 84.6029 315.918 84.5221C316.371 84.4414 316.839 84.3138 317.318 84.1393V85.9818C316.811 86.1693 316.318 86.3099 315.839 86.4036C315.358 86.4961 314.792 86.543 314.138 86.543ZM311.418 80.3437H315.398C315.398 79.6172 315.232 79.056 314.898 78.6588C314.565 78.2617 314.104 78.0638 313.518 78.0638C312.984 78.0638 312.525 78.2656 312.138 78.668C311.751 79.0729 311.512 79.6302 311.418 80.3437Z" fill="#154273"/>
<path d="M323.057 86.3633V84.4427L329.258 75.2838V75.2226H323.397V73.2435H331.937V75.1627L325.717 84.3034V84.3828H331.997V86.3633H323.057Z" fill="#154273"/>
<path d="M336.596 86.543C335.596 86.543 334.823 86.2877 334.276 85.7786C333.729 85.2682 333.456 84.6042 333.456 83.7851C333.456 82.8711 333.819 82.1237 334.546 81.5391C335.272 80.9557 336.415 80.6627 337.975 80.6627H338.665C338.872 80.6627 339.089 80.6706 339.315 80.6836V79.944C339.315 79.4388 339.148 79.0417 338.815 78.7539C338.482 78.4674 337.936 78.3229 337.176 78.3229C336.229 78.3229 335.276 78.5234 334.315 78.9232L333.996 77.0638C334.596 76.8099 335.172 76.6237 335.725 76.5039C336.279 76.3828 336.883 76.3229 337.535 76.3229C338.855 76.3229 339.839 76.6211 340.486 77.2174C341.133 77.8125 341.456 78.6667 341.456 79.7773V86.3633H339.396V85.7838C338.969 86.0508 338.542 86.2435 338.116 86.3633C337.689 86.4831 337.182 86.543 336.596 86.543ZM337.195 84.763C337.609 84.763 337.982 84.72 338.315 84.6328C338.648 84.5469 338.982 84.4167 339.315 84.2435V82.3034C339.089 82.2904 338.879 82.2799 338.686 82.2734C338.492 82.2669 338.262 82.263 337.996 82.263C337.182 82.263 336.605 82.3919 336.266 82.6497C335.926 82.9062 335.755 83.2187 335.755 83.5846C335.755 83.9505 335.876 84.2383 336.116 84.4479C336.355 84.6588 336.716 84.763 337.195 84.763Z" fill="#154273"/>
<path d="M344.046 86.3633V72.4635L346.266 72.3438V80.043H347.086L349.965 76.5039H352.525L349.046 80.6432L352.785 86.3633H350.146L347.206 81.8034H346.266V86.3633H344.046Z" fill="#154273"/>
<path d="M358.17 86.543C356.664 86.543 355.474 86.1289 354.6 85.2982C353.728 84.4687 353.29 83.1966 353.29 81.4831C353.29 80.3463 353.484 79.3958 353.871 78.6328C354.258 77.8698 354.788 77.2943 355.461 76.9062C356.134 76.5182 356.878 76.3229 357.69 76.3229C358.504 76.3229 359.204 76.4805 359.79 76.7956C360.378 77.1094 360.827 77.5651 361.141 78.1601C361.454 78.7552 361.611 79.4818 361.611 80.3372C361.611 80.6315 361.607 80.9167 361.6 81.1914C361.594 81.4648 361.577 81.7226 361.551 81.9635H355.47C355.523 82.5677 355.673 83.0677 355.92 83.4648C356.167 83.8607 356.504 84.1562 356.931 84.3516C357.357 84.5456 357.857 84.6432 358.431 84.6432C358.991 84.6432 359.497 84.6029 359.95 84.5221C360.404 84.4414 360.871 84.3138 361.35 84.1393V85.9818C360.844 86.1693 360.35 86.3099 359.871 86.4036C359.391 86.4961 358.824 86.543 358.17 86.543ZM355.45 80.3437H359.431C359.431 79.6172 359.264 79.056 358.931 78.6588C358.598 78.2617 358.137 78.0638 357.551 78.0638C357.017 78.0638 356.557 78.2656 356.17 78.668C355.784 79.0729 355.544 79.6302 355.45 80.3437Z" fill="#154273"/>
<path d="M363.823 86.3633V76.5039L365.962 76.4036V77.1029C366.389 76.8229 366.812 76.6237 367.233 76.5039C367.652 76.3828 368.122 76.3229 368.643 76.3229C369.723 76.3229 370.559 76.6211 371.152 77.2174C371.746 77.8125 372.043 78.6862 372.043 79.8372V86.3633H369.823V80.2331C369.823 79.6432 369.665 79.1836 369.353 78.8555C369.039 78.5273 368.582 78.3633 367.983 78.3633C367.609 78.3633 367.283 78.3906 367.003 78.4427C366.723 78.4961 366.402 78.5898 366.043 78.7226V86.3633H363.823Z" fill="#154273"/>
<path d="M87.3828 110.009C85.875 110.009 84.6849 109.595 83.8125 108.764C82.9388 107.935 82.5026 106.663 82.5026 104.949C82.5026 103.812 82.6953 102.862 83.082 102.099C83.4687 101.336 83.9987 100.76 84.6718 100.372C85.345 99.9844 86.0885 99.7891 86.9023 99.7891C87.7148 99.7891 88.4153 99.9466 89.0026 100.262C89.5885 100.576 90.039 101.031 90.3528 101.626C90.6653 102.221 90.8216 102.948 90.8216 103.803C90.8216 104.098 90.819 104.383 90.8125 104.658C90.8059 104.931 90.789 105.189 90.7617 105.43H84.6823C84.7356 106.034 84.8854 106.534 85.1328 106.931C85.3789 107.327 85.7148 107.622 86.1419 107.818C86.569 108.012 87.069 108.109 87.6419 108.109C88.2018 108.109 88.7083 108.069 89.1627 107.988C89.6158 107.908 90.082 107.78 90.5625 107.605V109.448C90.0559 109.635 89.5625 109.776 89.082 109.87C88.6028 109.962 88.0351 110.009 87.3828 110.009ZM84.6627 103.81H88.6419C88.6419 103.083 88.4752 102.522 88.1419 102.125C87.8086 101.728 87.3489 101.53 86.7617 101.53C86.2291 101.53 85.7682 101.732 85.3828 102.134C84.9948 102.539 84.7552 103.096 84.6627 103.81Z" fill="#154273"/>
<path d="M93.0338 109.829V99.9701L95.1744 99.8698V100.569C95.6002 100.289 96.0247 100.09 96.444 99.9701C96.8645 99.849 97.3346 99.7891 97.8541 99.7891C98.9349 99.7891 99.7708 100.087 100.365 100.684C100.957 101.279 101.254 102.152 101.254 103.303V109.829H99.0338V103.699C99.0338 103.109 98.8776 102.65 98.5638 102.322C98.2513 101.993 97.7942 101.829 97.194 101.829C96.8203 101.829 96.4948 101.857 96.2148 101.909C95.9349 101.962 95.6145 102.056 95.2539 102.189V109.829H93.0338Z" fill="#154273"/>
<path d="M108.273 109.829V96.7096H110.613V102.15H111.714L115.714 96.7096H118.414L113.754 102.87L118.534 109.829H115.694L111.793 104.109H110.613V109.829H108.273Z" fill="#154273"/>
<path d="M123.7 110.009C122.78 110.009 121.977 109.827 121.29 109.461C120.603 109.095 120.066 108.546 119.68 107.814C119.293 107.082 119.1 106.171 119.1 105.079C119.1 103.988 119.323 103.047 119.769 102.255C120.216 101.462 120.812 100.854 121.56 100.428C122.306 100.003 123.113 99.7891 123.98 99.7891C124.9 99.7891 125.703 99.9727 126.389 100.339C127.077 100.704 127.613 101.253 128 101.986C128.387 102.717 128.579 103.629 128.579 104.72C128.579 105.811 128.357 106.753 127.91 107.544C127.464 108.336 126.866 108.945 126.12 109.371C125.372 109.797 124.566 110.009 123.7 110.009ZM123.84 108.049C124.32 108.049 124.743 107.923 125.109 107.671C125.477 107.418 125.769 107.053 125.99 106.574C126.21 106.095 126.32 105.504 126.32 104.799C126.32 103.763 126.096 102.996 125.65 102.497C125.203 101.999 124.6 101.75 123.84 101.75C123.372 101.75 122.953 101.876 122.579 102.128C122.207 102.38 121.91 102.746 121.69 103.225C121.47 103.703 121.359 104.294 121.359 104.999C121.359 106.036 121.583 106.803 122.03 107.302C122.477 107.801 123.079 108.049 123.84 108.049Z" fill="#154273"/>
<path d="M130.754 109.829V99.9701L132.893 99.8698V100.569C133.32 100.289 133.743 100.09 134.164 99.9701C134.583 99.849 135.053 99.7891 135.574 99.7891C136.654 99.7891 137.49 100.087 138.083 100.684C138.677 101.279 138.974 102.152 138.974 103.303V109.829H136.754V103.699C136.754 103.109 136.596 102.65 136.284 102.322C135.97 101.993 135.513 101.829 134.914 101.829C134.54 101.829 134.214 101.857 133.934 101.909C133.654 101.962 133.333 102.056 132.974 102.189V109.829H130.754Z" fill="#154273"/>
<path d="M142.617 98.349C142.217 98.349 141.897 98.2357 141.658 98.0091C141.418 97.7826 141.297 97.4766 141.297 97.0898C141.297 96.6888 141.418 96.3724 141.658 96.1393C141.897 95.9062 142.217 95.7891 142.617 95.7891C143.044 95.7891 143.367 95.9062 143.587 96.1393C143.807 96.3724 143.918 96.6888 143.918 97.0898C143.918 97.4766 143.807 97.7826 143.587 98.0091C143.367 98.2357 143.044 98.349 142.617 98.349ZM141.517 109.829V99.9701L143.737 99.8294V109.829H141.517Z" fill="#154273"/>
<path d="M146.405 109.829V99.9701L148.546 99.8698V100.569C148.971 100.289 149.396 100.09 149.815 99.9701C150.236 99.849 150.706 99.7891 151.225 99.7891C152.306 99.7891 153.142 100.087 153.736 100.684C154.328 101.279 154.625 102.152 154.625 103.303V109.829H152.405V103.699C152.405 103.109 152.249 102.65 151.935 102.322C151.622 101.993 151.165 101.829 150.565 101.829C150.191 101.829 149.866 101.857 149.586 101.909C149.306 101.962 148.986 102.056 148.625 102.189V109.829H146.405Z" fill="#154273"/>
<path d="M157.189 109.829V95.9297L159.409 95.8099V103.509H160.229L163.109 99.97H165.669L162.189 104.109L165.93 109.829H163.289L160.349 105.27H159.409V109.829H157.189Z" fill="#154273"/>
<path d="M167.527 109.829V99.9701L169.727 99.8698V100.99C170.074 100.549 170.414 100.24 170.747 100.06C171.081 99.8789 171.427 99.7891 171.786 99.7891C172.027 99.7891 172.23 99.7995 172.397 99.819C172.564 99.8398 172.747 99.8763 172.947 99.9297L172.786 102.069C172.574 102.003 172.378 101.96 172.197 101.939C172.017 101.919 171.82 101.909 171.607 101.909C171.286 101.909 170.983 101.966 170.697 102.079C170.41 102.193 170.094 102.383 169.747 102.65V109.829H167.527Z" fill="#154273"/>
<path d="M175.516 98.349C175.115 98.349 174.796 98.2357 174.555 98.0091C174.315 97.7826 174.195 97.4766 174.195 97.0898C174.195 96.6888 174.315 96.3724 174.555 96.1393C174.796 95.9062 175.115 95.7891 175.516 95.7891C175.941 95.7891 176.266 95.9062 176.486 96.1393C176.706 96.3724 176.815 96.6888 176.815 97.0898C176.815 97.4766 176.706 97.7826 176.486 98.0091C176.266 98.2357 175.941 98.349 175.516 98.349ZM174.415 109.829V99.9701L176.635 99.8294V109.829H174.415Z" fill="#154273"/>
<path d="M178.021 113.729L177.82 111.949C178.354 111.815 178.741 111.585 178.98 111.258C179.221 110.93 179.341 110.471 179.341 109.883V99.9701L181.561 99.8294V109.858C181.561 110.673 181.404 111.355 181.091 111.905C180.777 112.452 180.354 112.87 179.82 113.158C179.288 113.445 178.687 113.635 178.021 113.729ZM180.441 98.349C180.04 98.349 179.721 98.2357 179.48 98.0091C179.241 97.7826 179.121 97.4766 179.121 97.0898C179.121 96.6888 179.241 96.3724 179.48 96.1393C179.721 95.9062 180.04 95.7891 180.441 95.7891C180.867 95.7891 181.191 95.9062 181.411 96.1393C181.632 96.3724 181.741 96.6888 181.741 97.0898C181.741 97.4766 181.632 97.7826 181.411 98.0091C181.191 98.2357 180.867 98.349 180.441 98.349Z" fill="#154273"/>
<path d="M184.228 109.829V95.9297L186.448 95.8099V103.509H187.268L190.148 99.97H192.708L189.228 104.109L192.969 109.829H190.328L187.388 105.27H186.448V109.829H184.228Z" fill="#154273"/>
<path d="M197.178 110.009C196.591 110.009 196.072 109.986 195.618 109.939C195.164 109.892 194.738 109.823 194.339 109.729V107.77C194.818 107.902 195.294 107.996 195.768 108.049C196.241 108.103 196.711 108.129 197.178 108.129C197.858 108.129 198.345 108.03 198.638 107.832C198.931 107.633 199.078 107.376 199.078 107.061C199.078 106.792 198.971 106.566 198.758 106.384C198.544 106.202 198.171 106.038 197.638 105.889L196.478 105.526C195.798 105.324 195.275 105.01 194.908 104.586C194.542 104.163 194.358 103.6 194.358 102.9C194.358 102.294 194.521 101.759 194.848 101.294C195.174 100.829 195.641 100.462 196.249 100.194C196.854 99.9245 197.585 99.7891 198.437 99.7891C198.918 99.7891 199.354 99.806 199.749 99.8398C200.141 99.8724 200.512 99.9232 200.858 99.9896L200.698 101.87C200.298 101.803 199.921 101.757 199.568 101.729C199.215 101.703 198.824 101.689 198.398 101.689C197.732 101.689 197.258 101.783 196.978 101.967C196.698 102.152 196.559 102.389 196.559 102.677C196.559 102.947 196.648 103.163 196.828 103.324C197.008 103.486 197.331 103.626 197.798 103.749L198.958 104.051C199.732 104.267 200.311 104.59 200.698 105.021C201.085 105.452 201.279 106.01 201.279 106.697C201.279 107.37 201.111 107.956 200.779 108.454C200.444 108.953 199.975 109.336 199.368 109.605C198.762 109.875 198.031 110.009 197.178 110.009Z" fill="#154273"/>
<path d="M203.247 109.829V99.9701L205.448 99.8698V100.99C205.794 100.549 206.134 100.24 206.467 100.06C206.801 99.8789 207.148 99.7891 207.508 99.7891C207.747 99.7891 207.95 99.7995 208.117 99.819C208.284 99.8398 208.467 99.8763 208.668 99.9297L208.508 102.069C208.294 102.003 208.098 101.96 207.918 101.939C207.738 101.919 207.54 101.909 207.328 101.909C207.008 101.909 206.704 101.966 206.418 102.079C206.131 102.193 205.814 102.383 205.467 102.65V109.829H203.247Z" fill="#154273"/>
<path d="M214.316 110.009C212.809 110.009 211.618 109.595 210.746 108.764C209.872 107.935 209.436 106.663 209.436 104.949C209.436 103.812 209.629 102.862 210.016 102.099C210.402 101.336 210.932 100.76 211.605 100.372C212.279 99.9844 213.022 99.7891 213.836 99.7891C214.648 99.7891 215.349 99.9466 215.936 100.262C216.522 100.576 216.973 101.031 217.286 101.626C217.599 102.221 217.755 102.948 217.755 103.803C217.755 104.098 217.753 104.383 217.746 104.658C217.74 104.931 217.723 105.189 217.695 105.43H211.616C211.669 106.034 211.819 106.534 212.066 106.931C212.312 107.327 212.648 107.622 213.075 107.818C213.503 108.012 214.003 108.109 214.575 108.109C215.135 108.109 215.642 108.069 216.096 107.988C216.549 107.908 217.016 107.78 217.496 107.605V109.448C216.99 109.635 216.496 109.776 216.016 109.87C215.536 109.962 214.969 110.009 214.316 110.009ZM211.596 103.81H215.575C215.575 103.083 215.409 102.522 215.075 102.125C214.742 101.728 214.283 101.53 213.695 101.53C213.163 101.53 212.702 101.732 212.316 102.134C211.928 102.539 211.689 103.096 211.596 103.81Z" fill="#154273"/>
<path d="M219.986 109.829V95.9297L222.206 95.8099V109.829H219.986Z" fill="#154273"/>
<path d="M227.29 110.009C226.29 110.009 225.517 109.754 224.97 109.245C224.423 108.734 224.15 108.07 224.15 107.251C224.15 106.337 224.513 105.59 225.24 105.005C225.966 104.422 227.109 104.129 228.669 104.129H229.359C229.566 104.129 229.782 104.137 230.009 104.15V103.41C230.009 102.905 229.842 102.508 229.509 102.22C229.176 101.934 228.63 101.789 227.87 101.789C226.923 101.789 225.97 101.99 225.009 102.389L224.69 100.53C225.29 100.276 225.866 100.09 226.419 99.9701C226.973 99.849 227.577 99.7891 228.229 99.7891C229.549 99.7891 230.532 100.087 231.18 100.684C231.827 101.279 232.15 102.133 232.15 103.243V109.829H230.09V109.25C229.663 109.517 229.236 109.71 228.81 109.829C228.383 109.949 227.876 110.009 227.29 110.009ZM227.889 108.229C228.303 108.229 228.676 108.186 229.009 108.099C229.342 108.013 229.676 107.883 230.009 107.71V105.77C229.782 105.757 229.573 105.746 229.38 105.74C229.186 105.733 228.956 105.729 228.69 105.729C227.876 105.729 227.299 105.858 226.96 106.116C226.62 106.372 226.449 106.685 226.449 107.051C226.449 107.417 226.57 107.704 226.81 107.914C227.049 108.125 227.41 108.229 227.889 108.229Z" fill="#154273"/>
<path d="M238.017 110.009C237.417 110.009 236.887 109.896 236.427 109.668C235.967 109.44 235.607 109.082 235.346 108.592C235.087 108.104 234.957 107.47 234.957 106.694V101.669H233.777V99.97H234.957V98.1693L237.158 97.97V99.97H239.677V101.669H237.158V106.439C237.158 107.003 237.293 107.419 237.566 107.687C237.84 107.956 238.203 108.09 238.658 108.09C238.897 108.09 239.111 108.073 239.297 108.039C239.483 108.006 239.697 107.962 239.937 107.909V109.77C239.63 109.849 239.327 109.909 239.027 109.949C238.727 109.99 238.391 110.009 238.017 110.009Z" fill="#154273"/>
<path d="M242.777 98.349C242.376 98.349 242.057 98.2357 241.816 98.0091C241.577 97.7826 241.457 97.4766 241.457 97.0898C241.457 96.6888 241.577 96.3724 241.816 96.1393C242.057 95.9062 242.376 95.7891 242.777 95.7891C243.203 95.7891 243.527 95.9062 243.747 96.1393C243.967 96.3724 244.077 96.6888 244.077 97.0898C244.077 97.4766 243.967 97.7826 243.747 98.0091C243.527 98.2357 243.203 98.349 242.777 98.349ZM241.677 109.829V99.9701L243.897 99.8294V109.829H241.677Z" fill="#154273"/>
<path d="M250.963 110.009C249.456 110.009 248.266 109.595 247.393 108.764C246.519 107.935 246.083 106.663 246.083 104.949C246.083 103.812 246.276 102.862 246.663 102.099C247.049 101.336 247.579 100.76 248.253 100.372C248.926 99.9844 249.669 99.7891 250.483 99.7891C251.295 99.7891 251.996 99.9466 252.583 100.262C253.169 100.576 253.62 101.031 253.934 101.626C254.246 102.221 254.402 102.948 254.402 103.803C254.402 104.098 254.4 104.383 254.393 104.658C254.387 104.931 254.37 105.189 254.342 105.43H248.263C248.316 106.034 248.466 106.534 248.713 106.931C248.96 107.327 249.295 107.622 249.723 107.818C250.15 108.012 250.65 108.109 251.223 108.109C251.782 108.109 252.289 108.069 252.743 107.988C253.197 107.908 253.663 107.78 254.143 107.605V109.448C253.637 109.635 253.143 109.776 252.663 109.87C252.184 109.962 251.616 110.009 250.963 110.009ZM248.243 103.81H252.223C252.223 103.083 252.056 102.522 251.723 102.125C251.389 101.728 250.93 101.53 250.342 101.53C249.81 101.53 249.349 101.732 248.963 102.134C248.575 102.539 248.336 103.096 248.243 103.81Z" fill="#154273"/>
<path d="M258.91 110.009C258.324 110.009 257.803 109.986 257.35 109.939C256.897 109.892 256.47 109.823 256.07 109.729V107.77C256.551 107.902 257.027 107.996 257.5 108.049C257.974 108.103 258.444 108.129 258.91 108.129C259.591 108.129 260.077 108.03 260.371 107.832C260.664 107.633 260.81 107.376 260.81 107.061C260.81 106.792 260.703 106.566 260.491 106.384C260.277 106.202 259.904 106.038 259.371 105.889L258.211 105.526C257.53 105.324 257.007 105.01 256.641 104.586C256.273 104.163 256.091 103.6 256.091 102.9C256.091 102.294 256.254 101.759 256.581 101.294C256.908 100.829 257.374 100.462 257.98 100.194C258.587 99.9245 259.318 99.7891 260.171 99.7891C260.651 99.7891 261.087 99.806 261.48 99.8398C261.874 99.8724 262.243 99.9232 262.591 99.9896L262.431 101.87C262.03 101.803 261.654 101.757 261.301 101.729C260.947 101.703 260.557 101.689 260.13 101.689C259.464 101.689 258.991 101.783 258.711 101.967C258.431 102.152 258.29 102.389 258.29 102.677C258.29 102.947 258.38 103.163 258.56 103.324C258.741 103.486 259.064 103.626 259.53 103.749L260.69 104.051C261.464 104.267 262.044 104.59 262.431 105.021C262.818 105.452 263.01 106.01 263.01 106.697C263.01 107.37 262.844 107.956 262.51 108.454C262.177 108.953 261.707 109.336 261.1 109.605C260.493 109.875 259.763 110.009 258.91 110.009Z" fill="#154273"/>
</svg>
