<svg viewBox="0 0 177.678 55.9053" fill="none" xmlns="http://www.w3.org/2000/svg">
<g id="Group">
<path id="Vector" d="M51.1071 36.8531C47.9237 36.8531 46.8798 34.7437 46.8798 30.937C46.8798 27.1985 47.9237 24.8492 51.1071 24.8492C52.0996 24.8492 52.8526 24.9863 53.2806 25.1407C53.3487 25.1751 53.3659 25.1922 53.3659 25.295L53.2974 26.4269C53.2974 26.4783 53.2461 26.547 53.1608 26.5125C52.75 26.3582 51.9971 26.2211 51.2954 26.2211C49.0189 26.2211 48.5913 27.5757 48.5913 30.954C48.5913 34.1264 49.0189 35.4813 51.2954 35.4813C51.8941 35.4813 52.6474 35.3782 53.075 35.2582C53.1608 35.2412 53.2806 35.2239 53.2974 35.3269L53.4004 36.373C53.4172 36.4758 53.3832 36.5445 53.3319 36.5616C52.7841 36.7331 51.9454 36.8531 51.1071 36.8531Z" fill="#2C2965"/>
<path id="Vector_2" d="M59.3207 36.8531C55.915 36.8531 55.1107 34.7094 55.1107 32.0857C55.1107 29.3763 56.1033 27.3356 58.9613 27.3356C61.7851 27.3356 62.4355 29.0334 62.4355 31.3141V31.7943C62.4355 32.4802 62.2816 32.6345 61.9907 32.6345H56.9076C56.8222 32.6345 56.805 32.6688 56.805 32.7546C56.805 35.0353 57.8488 35.5841 59.6629 35.5841C60.4676 35.5841 61.3403 35.3612 61.8709 35.1382C61.905 35.1382 61.939 35.1211 61.9562 35.1211C62.042 35.1211 62.0933 35.1554 62.1274 35.224L62.1959 36.1328V36.1844C62.1959 36.2529 62.1618 36.3214 62.0761 36.3557C61.3403 36.6816 60.4159 36.8531 59.3207 36.8531ZM56.9076 31.4342H60.7072C60.8611 31.4342 60.9124 31.3999 60.9124 30.8339C60.9124 29.2907 60.4503 28.5704 58.9613 28.5704C57.2157 28.5704 56.805 29.7364 56.805 31.3141C56.805 31.3827 56.8222 31.4342 56.9076 31.4342Z" fill="#2C2965"/>
<path id="Vector_3" d="M70.6151 36.6816C70.5121 36.6816 70.4436 36.6131 70.4436 36.51V30.6111C70.4436 28.9991 70.1186 28.6047 68.3899 28.6047C67.7568 28.6047 67.2607 28.6562 66.884 28.742C66.7642 28.7763 66.7129 28.8105 66.7129 28.9306V36.51C66.7129 36.613 66.6443 36.6816 66.5418 36.6816H65.241C65.1384 36.6816 65.0699 36.613 65.0699 36.51V27.8673C65.0699 27.7645 65.1384 27.713 65.241 27.6958C66.1651 27.5244 67.5343 27.3356 68.3899 27.3356C71.4021 27.3356 72.0866 27.9873 72.0866 30.491V36.51C72.0866 36.613 72.0184 36.6816 71.9154 36.6816L70.6151 36.6816Z" fill="#2C2965"/>
<path id="Vector_4" d="M77.5108 36.8531C76.2273 36.8531 75.6282 36.1843 75.6282 35.0868V28.879C75.6282 28.8105 75.5937 28.7762 75.5256 28.7762H74.1563C74.0537 28.7762 73.9852 28.7074 73.9852 28.6046V27.6787C73.9852 27.5756 74.0537 27.5071 74.1563 27.5071H75.5256C75.5937 27.5071 75.6282 27.4728 75.6282 27.4043V25.2606C75.6282 25.1577 75.6967 25.0892 75.7993 25.0892H77.1C77.2026 25.0892 77.2711 25.1577 77.2711 25.2606V27.4043C77.2711 27.4728 77.3052 27.5071 77.3737 27.5071H78.9826C79.0852 27.5071 79.1537 27.5756 79.1537 27.6787V28.6046C79.1537 28.7074 79.0852 28.7762 78.9826 28.7762H77.3737C77.3052 28.7762 77.2711 28.8105 77.2711 28.879V34.8809C77.2711 35.3954 77.4763 35.6012 78.0241 35.6012H78.7258C78.8115 35.6012 78.8969 35.6355 78.8969 35.7726L78.8628 36.4929C78.8628 36.5957 78.7943 36.6987 78.7085 36.7158C78.3491 36.7843 77.9215 36.8531 77.5108 36.8531Z" fill="#2C2965"/>
<path id="Vector_5" d="M81.4976 27.6958C82.2505 27.5244 83.2259 27.3356 84.2185 27.3356C84.7491 27.3356 85.4167 27.3528 85.7933 27.4214C85.8787 27.4386 85.8959 27.4729 85.8959 27.5586L85.8102 28.6561C85.8102 28.7074 85.7761 28.7419 85.6904 28.7247C85.2628 28.6561 84.8007 28.6218 84.2357 28.6218C83.928 28.6218 83.3457 28.6561 83.0893 28.7932C82.9867 28.8447 82.9694 28.9133 82.9694 28.999V36.5099C82.9694 36.63 82.8837 36.6987 82.7639 36.6815H81.4976C81.395 36.6815 81.3265 36.613 81.3265 36.5099V27.8672C81.3265 27.7644 81.395 27.713 81.4976 27.6958Z" fill="#2C2965"/>
<path id="Vector_6" d="M87.8979 28.8105C87.795 28.8275 87.6583 28.8275 87.6411 28.7247L87.5213 27.8844C87.504 27.7816 87.5213 27.6788 87.6238 27.6445C88.2742 27.4557 89.1302 27.3356 90.2766 27.3356C92.3988 27.3356 93.494 28.1245 93.494 30.1309V36.3044C93.494 36.4072 93.46 36.493 93.2716 36.5615C92.7924 36.7158 91.7312 36.8531 90.5848 36.8531C87.607 36.8531 86.7511 36.2529 86.7511 34.3838C86.7511 32.7375 87.145 31.8457 89.6607 31.537L91.7998 31.2799C91.8683 31.2627 91.9024 31.2456 91.9024 31.1768V30.3024C91.9024 28.9818 91.355 28.6562 89.8831 28.6562C89.2668 28.6562 88.4453 28.7247 87.8979 28.8105ZM91.9024 32.6002C91.9024 32.5317 91.8683 32.4974 91.7998 32.4974H90.2426C88.8048 32.4974 88.4285 32.8061 88.4285 34.1779C88.4285 35.5325 88.7194 35.7041 90.4305 35.7041C90.9098 35.7041 91.4916 35.6698 91.7485 35.6013C91.8855 35.5668 91.9024 35.5325 91.9024 35.4812V32.6002Z" fill="#2C2965"/>
<path id="Vector_7" d="M97.1214 28.8105C97.0184 28.8275 96.8818 28.8275 96.8645 28.7247L96.7447 27.8844C96.7275 27.7816 96.7447 27.6788 96.8473 27.6445C97.4977 27.4557 98.3536 27.3356 99.5001 27.3356C101.622 27.3356 102.717 28.1245 102.717 30.1309V36.3044C102.717 36.4072 102.683 36.493 102.495 36.5615C102.016 36.7158 100.955 36.8531 99.8082 36.8531C96.8305 36.8531 95.9745 36.2529 95.9745 34.3838C95.9745 32.7375 96.3684 31.8457 98.8842 31.537L101.023 31.2799C101.092 31.2627 101.126 31.2456 101.126 31.1768V30.3024C101.126 28.9818 100.578 28.6562 99.1066 28.6562C98.4903 28.6562 97.6688 28.7247 97.1214 28.8105ZM101.126 32.6002C101.126 32.5317 101.092 32.4974 101.023 32.4974H99.466C98.0282 32.4974 97.652 32.8061 97.652 34.1779C97.652 35.5325 97.9429 35.7041 99.654 35.7041C100.133 35.7041 100.715 35.6698 100.972 35.6013C101.109 35.5668 101.126 35.5325 101.126 35.4812V32.6002Z" fill="#2C2965"/>
<path id="Vector_8" d="M107.509 36.8531C106.225 36.8531 105.626 36.4244 105.626 34.8295V24.249C105.626 24.1461 105.694 24.0776 105.797 24.0776H107.098C107.2 24.0776 107.269 24.1461 107.269 24.249V34.881C107.269 35.3955 107.491 35.6013 107.971 35.6013H108.706C108.792 35.6013 108.877 35.6356 108.877 35.7726L108.843 36.4929C108.843 36.5958 108.775 36.6988 108.689 36.7158C108.33 36.8016 107.971 36.8531 107.509 36.8531Z" fill="#2C2965"/>
<path id="Vector_9" d="M117.896 25.0208C120.274 25.0208 121.438 25.7582 121.438 27.9016C121.438 29.4963 120.754 29.908 120.018 30.371C119.846 30.4738 119.812 30.5083 119.812 30.5939C119.812 30.6626 119.864 30.7139 119.966 30.7482C120.925 31.1256 121.678 31.7943 121.678 33.612C121.678 35.8757 120.155 36.6816 118.494 36.6816H114.575C114.473 36.6816 114.404 36.613 114.404 36.51V25.1921C114.404 25.0893 114.473 25.0208 114.575 25.0208L117.896 25.0208ZM116.971 30.1824C118.649 30.1824 119.71 30.0108 119.71 28.056C119.71 26.7356 119.265 26.2726 117.485 26.2726H116.184C116.098 26.2726 116.082 26.3069 116.082 26.3755V30.0452C116.082 30.1652 116.116 30.1824 116.218 30.1824L116.971 30.1824ZM117.399 35.4125C119.333 35.4125 119.949 35.1039 119.949 33.3891C119.949 31.6228 118.888 31.3141 117.485 31.3141H116.218C116.116 31.3141 116.082 31.3484 116.082 31.4684V35.3096C116.082 35.3954 116.098 35.4125 116.167 35.4125L117.399 35.4125Z" fill="#2C2965"/>
<path id="Vector_10" d="M125.63 27.5072C125.733 27.5072 125.801 27.5757 125.801 27.6788V33.4577C125.801 35.0696 126.212 35.5326 127.941 35.5326C128.454 35.5326 128.985 35.4813 129.361 35.3955C129.481 35.3612 129.532 35.327 129.532 35.2069V27.6788C129.532 27.5757 129.6 27.5072 129.703 27.5072H131.004C131.106 27.5072 131.175 27.5757 131.175 27.6788V36.3214C131.175 36.4245 131.106 36.4758 131.004 36.493C130.08 36.6816 128.796 36.8532 127.957 36.8532C124.945 36.8532 124.158 36.1329 124.158 33.6292V27.6788C124.158 27.5757 124.227 27.5072 124.329 27.5072H125.63Z" fill="#2C2965"/>
<path id="Vector_11" d="M134.323 27.6958C135.076 27.5244 136.051 27.3356 137.044 27.3356C137.574 27.3356 138.242 27.3528 138.619 27.4214C138.704 27.4386 138.721 27.4729 138.721 27.5586L138.636 28.6561C138.636 28.7074 138.602 28.7419 138.516 28.7247C138.088 28.6561 137.626 28.6218 137.061 28.6218C136.753 28.6218 136.171 28.6561 135.915 28.7932C135.812 28.8447 135.795 28.9133 135.795 28.999V36.5099C135.795 36.63 135.709 36.6987 135.589 36.6815H134.323C134.22 36.6815 134.152 36.613 134.152 36.5099V27.8672C134.152 27.7644 134.22 27.713 134.323 27.6958Z" fill="#2C2965"/>
<path id="Vector_12" d="M144.026 36.8531C140.62 36.8531 139.816 34.7094 139.816 32.0857C139.816 29.3763 140.809 27.3356 143.667 27.3356C146.491 27.3356 147.141 29.0334 147.141 31.3141V31.7943C147.141 32.4802 146.987 32.6345 146.696 32.6345H141.613C141.527 32.6345 141.51 32.6688 141.51 32.7546C141.51 35.0353 142.554 35.5841 144.368 35.5841C145.173 35.5841 146.045 35.3612 146.576 35.1382C146.61 35.1382 146.644 35.1211 146.662 35.1211C146.747 35.1211 146.798 35.1554 146.833 35.224L146.901 36.1328V36.1844C146.901 36.2529 146.867 36.3214 146.781 36.3557C146.045 36.6816 145.121 36.8531 144.026 36.8531ZM141.613 31.4342H145.412C145.566 31.4342 145.618 31.3999 145.618 30.8339C145.618 29.2907 145.155 28.5704 143.667 28.5704C141.921 28.5704 141.51 29.7364 141.51 31.3141C141.51 31.3827 141.527 31.4342 141.613 31.4342Z" fill="#2C2965"/>
<path id="Vector_13" d="M150.34 28.8105C150.237 28.8275 150.1 28.8275 150.083 28.7247L149.964 27.8844C149.946 27.7816 149.964 27.6788 150.066 27.6445C150.717 27.4557 151.572 27.3356 152.719 27.3356C154.841 27.3356 155.936 28.1245 155.936 30.1309V36.3044C155.936 36.4072 155.902 36.493 155.714 36.5615C155.235 36.7158 154.174 36.8531 153.027 36.8531C150.049 36.8531 149.193 36.2529 149.193 34.3838C149.193 32.7375 149.587 31.8457 152.103 31.537L154.242 31.2799C154.311 31.2627 154.345 31.2456 154.345 31.1768V30.3024C154.345 28.9818 153.797 28.6562 152.326 28.6562C151.709 28.6562 150.888 28.7247 150.34 28.8105ZM154.345 32.6002C154.345 32.5317 154.311 32.4974 154.242 32.4974H152.685C151.247 32.4974 150.871 32.8061 150.871 34.1779C150.871 35.5325 151.161 35.7041 152.873 35.7041C153.352 35.7041 153.934 35.6698 154.191 35.6013C154.328 35.5668 154.345 35.5325 154.345 35.4812V32.6002Z" fill="#2C2965"/>
<path id="Vector_14" d="M160.248 27.5072C160.351 27.5072 160.419 27.5757 160.419 27.6788V33.4577C160.419 35.0696 160.83 35.5326 162.558 35.5326C163.072 35.5326 163.602 35.4813 163.979 35.3955C164.099 35.3612 164.15 35.327 164.15 35.2069V27.6788C164.15 27.5757 164.219 27.5072 164.321 27.5072H165.622C165.725 27.5072 165.793 27.5757 165.793 27.6788V36.3214C165.793 36.4245 165.725 36.4758 165.622 36.493C164.698 36.6816 163.414 36.8532 162.576 36.8532C159.563 36.8532 158.776 36.1329 158.776 33.6292V27.6788C158.776 27.5757 158.845 27.5072 158.947 27.5072H160.248Z" fill="#2C2965"/>
<path id="Vector_15" d="M51.0726 55.7334H48.8478C48.7624 55.7334 48.6939 55.6479 48.6767 55.5965C47.975 53.7101 46.3152 47.8451 46.0924 46.7136C46.0924 46.6104 46.1269 46.559 46.2467 46.559H47.65C47.7526 46.559 47.7871 46.6277 47.8039 46.7136C48.3172 48.8915 49.2417 52.5955 49.7891 54.2932C49.8063 54.3787 49.8748 54.3959 50.0287 54.3959C50.1998 54.3959 50.2511 54.3787 50.2856 54.2932C50.8334 52.5951 51.7234 48.8915 52.2195 46.7136C52.2367 46.6104 52.322 46.559 52.4419 46.559H53.7598C53.8624 46.559 53.8969 46.6449 53.8969 46.7308C53.6913 47.8451 51.9458 53.8129 51.2782 55.5965C51.2441 55.682 51.1924 55.7334 51.0726 55.7334Z" fill="#2C2965"/>
<path id="Vector_16" d="M61.6653 54.979C61.0835 55.6306 60.2107 55.9049 58.8587 55.9049C57.4894 55.9049 56.6852 55.6306 56.1033 54.979C55.4874 54.2586 55.025 52.7838 55.025 51.0689C55.025 49.3371 55.4702 47.9824 56.1033 47.2793C56.6852 46.6104 57.5579 46.3876 58.8927 46.3876C60.262 46.3876 61.0835 46.6277 61.6653 47.2793C62.2816 47.9993 62.7092 49.3371 62.7092 51.0689C62.7092 52.7838 62.2816 54.2586 61.6653 54.979ZM57.3355 54.2072C57.6092 54.4987 57.9687 54.6188 58.8587 54.6188C59.8 54.6188 60.1422 54.4987 60.399 54.2072C60.8266 53.7443 61.0322 52.4751 61.0322 51.0689C61.0322 49.6459 60.8266 48.5313 60.399 48.0683C60.1422 47.7764 59.8 47.6568 58.8927 47.6568C57.9687 47.6568 57.6092 47.7768 57.3355 48.0683C56.9076 48.5313 56.7024 49.6459 56.7024 51.0689C56.7024 52.4751 56.9076 53.7443 57.3355 54.2072Z" fill="#2C2965"/>
<path id="Vector_17" d="M71.2995 54.979C70.7177 55.6306 69.8449 55.9049 68.4929 55.9049C67.124 55.9049 66.3194 55.6306 65.7375 54.979C65.1216 54.2586 64.6596 52.7838 64.6596 51.0689C64.6596 49.3371 65.1044 47.9824 65.7375 47.2793C66.3194 46.6104 67.1921 46.3876 68.5273 46.3876C69.8962 46.3876 70.7177 46.6277 71.2995 47.2793C71.9158 47.9993 72.3438 49.3371 72.3438 51.0689C72.3438 52.7838 71.9158 54.2586 71.2995 54.979ZM66.9697 54.2072C67.2438 54.4987 67.6029 54.6188 68.4929 54.6188C69.4342 54.6188 69.7764 54.4987 70.0332 54.2072C70.4612 53.7443 70.6664 52.4751 70.6664 51.0689C70.6664 49.6459 70.4612 48.5313 70.0332 48.0683C69.7764 47.7764 69.4342 47.6568 68.5273 47.6568C67.6029 47.6568 67.2438 47.7768 66.9697 48.0683C66.5421 48.5313 66.3366 49.6459 66.3366 51.0689C66.3366 52.4751 66.5421 53.7443 66.9697 54.2072Z" fill="#2C2965"/>
<path id="Vector_18" d="M74.8071 46.7477C75.56 46.5763 76.5354 46.3876 77.5284 46.3876C78.0585 46.3876 78.7261 46.4048 79.1028 46.4731C79.1882 46.4904 79.2054 46.5249 79.2054 46.6104L79.1197 47.7082C79.1197 47.7592 79.0856 47.7937 78.9998 47.7764C78.5723 47.7082 78.1102 47.6736 77.5452 47.6736C77.2375 47.6736 76.6552 47.7082 76.3987 47.8451C76.2962 47.8965 76.2789 47.9652 76.2789 48.0511V55.562C76.2789 55.682 76.1932 55.7507 76.0734 55.7334H74.8071C74.7045 55.7334 74.636 55.6648 74.636 55.562V46.9192C74.636 46.8164 74.7045 46.765 74.8071 46.7477Z" fill="#2C2965"/>
<path id="Vector_19" d="M83.7909 51.0348C83.7909 47.7768 85.0404 46.3876 87.9496 46.3876C88.5315 46.3876 89.0792 46.5076 89.2844 46.5076C89.3874 46.5076 89.4042 46.439 89.4042 46.3534V43.301C89.4042 43.1982 89.4728 43.1296 89.5753 43.1296H90.8761C90.9787 43.1296 91.0472 43.1982 91.0472 43.301V55.3391C91.0472 55.4419 90.9791 55.5106 90.8761 55.5451C90.1744 55.7334 89.1818 55.9053 88.0354 55.9053C84.6465 55.9053 83.7909 54.5501 83.7909 51.0348ZM89.4042 48.0165C89.4042 47.931 89.3702 47.8451 89.2844 47.811C89.0448 47.725 88.4629 47.6568 87.9841 47.6568C86.1015 47.6568 85.5024 48.1711 85.5024 51.0348C85.5024 53.8816 85.7933 54.6533 88.0354 54.6533C88.4116 54.6533 88.9594 54.6361 89.2504 54.5333C89.3874 54.4815 89.4042 54.4132 89.4042 54.3446V48.0165Z" fill="#2C2965"/>
<path id="Vector_20" d="M97.2075 55.9049C93.8018 55.9049 92.9972 53.7611 92.9972 51.1376C92.9972 48.4281 93.9897 46.3876 96.8481 46.3876C99.672 46.3876 100.322 48.0852 100.322 50.3659V50.8461C100.322 51.5319 100.168 51.6865 99.8771 51.6865H94.7944C94.7086 51.6865 94.6914 51.7206 94.6914 51.8065C94.6914 54.0872 95.7357 54.6361 97.5497 54.6361C98.354 54.6361 99.2268 54.4132 99.7573 54.19C99.7918 54.19 99.8258 54.1731 99.8431 54.1731C99.9284 54.1731 99.9797 54.2072 100.014 54.2759L100.083 55.1845V55.2363C100.083 55.3046 100.048 55.3733 99.9629 55.4078C99.2268 55.7334 98.3027 55.9049 97.2075 55.9049ZM94.7944 50.4859H98.5936C98.7475 50.4859 98.7988 50.4518 98.7988 49.8856C98.7988 48.3426 98.3368 47.6222 96.8481 47.6222C95.1021 47.6222 94.6914 48.7883 94.6914 50.3659C94.6914 50.4345 94.7086 50.4859 94.7944 50.4859Z" fill="#2C2965"/>
<path id="Vector_21" d="M107.303 46.8505C107.303 47.1762 107.337 47.4335 107.543 47.725C107.817 48.1193 108.587 48.6341 109.631 49.3885C110.589 50.0575 111.308 50.6746 111.667 51.2576C111.975 51.772 111.993 52.2867 111.993 52.7497C111.993 54.9103 110.948 55.8535 108.809 55.8535C107.731 55.8535 106.413 55.7162 105.575 55.5106C105.506 55.4933 105.489 55.4592 105.489 55.3564L105.557 54.2414C105.557 54.19 105.609 54.1386 105.694 54.1558C106.687 54.3273 107.646 54.4132 108.655 54.4132C109.751 54.4132 110.35 54.1044 110.35 52.9039C110.35 52.5782 110.332 52.1667 110.127 51.8752C109.853 51.4805 109.083 50.9661 108.039 50.2117C107.081 49.5427 106.328 48.9256 105.968 48.3426C105.66 47.8282 105.643 47.3653 105.643 46.9019C105.643 44.7413 106.756 44.0214 109.22 44.0214C110.213 44.0214 111.394 44.2097 111.822 44.3643C111.89 44.3984 111.907 44.4157 111.907 44.5185L111.838 45.5644C111.838 45.6158 111.787 45.6845 111.702 45.6504C111.291 45.4958 110.127 45.3757 109.271 45.3757C107.799 45.3757 107.303 45.719 107.303 46.8505Z" fill="#2C2965"/>
<path id="Vector_22" d="M117.057 55.9049C115.774 55.9049 115.175 55.2363 115.175 54.1386V47.931C115.175 47.8624 115.141 47.8282 115.072 47.8282H113.703C113.6 47.8282 113.532 47.7592 113.532 47.6564V46.7305C113.532 46.6277 113.6 46.559 113.703 46.559H115.072C115.141 46.559 115.175 46.5245 115.175 46.4562V44.3125C115.175 44.2097 115.243 44.141 115.346 44.141H116.647C116.749 44.141 116.818 44.2097 116.818 44.3125V46.4562C116.818 46.5245 116.852 46.559 116.92 46.559H118.529C118.632 46.559 118.7 46.6277 118.7 46.7305V47.6564C118.7 47.7592 118.632 47.8282 118.529 47.8282H116.92C116.852 47.8282 116.818 47.8624 116.818 47.931V53.933C116.818 54.4473 117.023 54.6529 117.571 54.6529H118.272C118.358 54.6529 118.443 54.6875 118.443 54.8244L118.409 55.5447C118.409 55.6475 118.341 55.7507 118.255 55.7676C117.896 55.8362 117.468 55.9049 117.057 55.9049Z" fill="#2C2965"/>
<path id="Vector_23" d="M121.455 47.8624C121.352 47.8792 121.215 47.8792 121.198 47.7764L121.078 46.9364C121.061 46.8333 121.078 46.7305 121.181 46.6963C121.832 46.5076 122.687 46.3876 123.834 46.3876C125.956 46.3876 127.051 47.1762 127.051 49.1826V55.3564C127.051 55.4592 127.017 55.5447 126.829 55.6134C126.35 55.7676 125.289 55.9049 124.142 55.9049C121.164 55.9049 120.308 55.3046 120.308 53.4355C120.308 51.7893 120.702 50.8975 123.218 50.5887L125.357 50.3317C125.425 50.3145 125.46 50.2976 125.46 50.2285V49.3544C125.46 48.0338 124.912 47.7082 123.44 47.7082C122.824 47.7082 122.003 47.7764 121.455 47.8624ZM125.46 51.6519C125.46 51.5837 125.425 51.5491 125.357 51.5491H123.8C122.362 51.5491 121.986 51.8579 121.986 53.2299C121.986 54.5843 122.276 54.7561 123.988 54.7561C124.467 54.7561 125.049 54.7216 125.305 54.6533C125.443 54.6188 125.46 54.5843 125.46 54.5333V51.6519Z" fill="#2C2965"/>
<path id="Vector_24" d="M132.664 55.9049C131.38 55.9049 130.781 55.2363 130.781 54.1386V47.931C130.781 47.8624 130.747 47.8282 130.678 47.8282H129.309C129.207 47.8282 129.138 47.7592 129.138 47.6564V46.7305C129.138 46.6277 129.207 46.559 129.309 46.559H130.678C130.747 46.559 130.781 46.5245 130.781 46.4562V44.3125C130.781 44.2097 130.85 44.141 130.952 44.141H132.253C132.355 44.141 132.424 44.2097 132.424 44.3125V46.4562C132.424 46.5245 132.458 46.559 132.527 46.559H134.135C134.238 46.559 134.307 46.6277 134.307 46.7305V47.6564C134.307 47.7592 134.238 47.8282 134.135 47.8282H132.527C132.458 47.8282 132.424 47.8624 132.424 47.931V53.933C132.424 54.4473 132.629 54.6529 133.177 54.6529H133.879C133.964 54.6529 134.05 54.6875 134.05 54.8244L134.016 55.5447C134.016 55.6475 133.947 55.7507 133.861 55.7676C133.502 55.8362 133.074 55.9049 132.664 55.9049Z" fill="#2C2965"/>
<path id="Vector_25" d="M136.907 44.7586C136.805 44.7586 136.736 44.6899 136.736 44.5867V43.1465C136.736 43.0437 136.804 42.975 136.907 42.975H138.362C138.464 42.975 138.533 43.0437 138.533 43.1465V44.5867C138.533 44.6899 138.464 44.7586 138.362 44.7586H136.907ZM136.976 55.7334C136.873 55.7334 136.804 55.6648 136.804 55.562V46.7305C136.804 46.6277 136.873 46.559 136.976 46.559H138.276C138.379 46.559 138.447 46.6277 138.447 46.7305V55.562C138.447 55.6648 138.379 55.7334 138.276 55.7334H136.976Z" fill="#2C2965"/>
<path id="Vector_26" d="M141.219 55.7334C141.168 55.7162 141.116 55.6993 141.116 55.6134L141.185 54.516C141.185 54.4642 141.254 54.4301 141.322 54.4473C141.921 54.5674 142.623 54.6188 143.187 54.6188C144.659 54.6188 144.899 54.4646 144.899 53.3841C144.899 52.7497 144.539 52.4237 143.136 51.4118C141.733 50.4004 141.202 49.9716 141.202 48.8569C141.202 47.0906 141.989 46.3876 144.231 46.3876C145.036 46.3876 145.72 46.439 146.182 46.5249C146.234 46.5418 146.285 46.559 146.285 46.6449L146.216 47.7423C146.216 47.7937 146.148 47.8282 146.08 47.811C145.635 47.7423 144.984 47.6564 144.42 47.6564C143.153 47.6564 142.725 47.7423 142.725 48.6855C142.725 49.4399 143.102 49.6973 144.505 50.6232C145.977 51.6005 146.456 52.2695 146.456 53.2982C146.456 55.3219 145.549 55.9049 143.461 55.9049C142.657 55.9049 141.75 55.8362 141.219 55.7334Z" fill="#2C2965"/>
<path id="Vector_27" d="M151.795 55.9049C150.511 55.9049 149.912 55.2363 149.912 54.1386V47.931C149.912 47.8624 149.878 47.8282 149.81 47.8282H148.441C148.338 47.8282 148.269 47.7592 148.269 47.6564V46.7305C148.269 46.6277 148.338 46.559 148.441 46.559H149.81C149.878 46.559 149.912 46.5245 149.912 46.4562V44.3125C149.912 44.2097 149.981 44.141 150.083 44.141H151.384C151.487 44.141 151.555 44.2097 151.555 44.3125V46.4562C151.555 46.5245 151.589 46.559 151.658 46.559H153.267C153.369 46.559 153.438 46.6277 153.438 46.7305V47.6564C153.438 47.7592 153.369 47.8282 153.267 47.8282H151.658C151.589 47.8282 151.555 47.8624 151.555 47.931V53.933C151.555 54.4473 151.761 54.6529 152.308 54.6529H153.01C153.096 54.6529 153.181 54.6875 153.181 54.8244L153.147 55.5447C153.147 55.6475 153.078 55.7507 152.993 55.7676C152.633 55.8362 152.206 55.9049 151.795 55.9049Z" fill="#2C2965"/>
<path id="Vector_28" d="M156.381 44.7586C156.278 44.7586 156.209 44.6899 156.209 44.5867V43.1465C156.209 43.0437 156.278 42.975 156.381 42.975H157.835C157.938 42.975 158.007 43.0437 158.007 43.1465V44.5867C158.007 44.6899 157.938 44.7586 157.835 44.7586H156.381ZM156.449 55.7334C156.346 55.7334 156.278 55.6648 156.278 55.562V46.7305C156.278 46.6277 156.346 46.559 156.449 46.559H157.75C157.852 46.559 157.921 46.6277 157.921 46.7305V55.562C157.921 55.6648 157.852 55.7334 157.75 55.7334H156.449Z" fill="#2C2965"/>
<path id="Vector_29" d="M164.766 55.9049C161.36 55.9049 160.556 53.7611 160.556 51.1376C160.556 48.4281 161.549 46.3876 164.407 46.3876C167.23 46.3876 167.881 48.0852 167.881 50.3659V50.8461C167.881 51.5319 167.727 51.6865 167.436 51.6865H162.353C162.267 51.6865 162.25 51.7206 162.25 51.8065C162.25 54.0872 163.294 54.6361 165.108 54.6361C165.913 54.6361 166.786 54.4132 167.316 54.19C167.35 54.19 167.384 54.1731 167.402 54.1731C167.487 54.1731 167.539 54.2072 167.573 54.2759L167.641 55.1845V55.2363C167.641 55.3046 167.607 55.3733 167.521 55.4078C166.786 55.7334 165.862 55.9049 164.766 55.9049ZM162.353 50.4859H166.152C166.306 50.4859 166.358 50.4518 166.358 49.8856C166.358 48.3426 165.896 47.6222 164.407 47.6222C162.661 47.6222 162.25 48.7883 162.25 50.3659C162.25 50.4345 162.267 50.4859 162.353 50.4859Z" fill="#2C2965"/>
<path id="Vector_30" d="M172.073 49.8856C172.073 49.9888 172.141 50.0402 172.381 50.0402C172.603 50.0402 172.689 50.023 172.757 49.9716C173.596 49.0456 174.896 47.5022 175.513 46.7132C175.598 46.6104 175.666 46.559 175.838 46.559H177.293C177.481 46.559 177.549 46.6104 177.498 46.7132C177.19 47.1079 175.239 49.2512 174.092 50.4687C174.024 50.5204 173.972 50.606 173.972 50.6746C173.972 50.7433 174.024 50.8119 174.126 50.9147C174.948 51.9266 177.224 54.9444 177.652 55.5447C177.703 55.6306 177.703 55.7334 177.429 55.7334H175.992C175.838 55.7334 175.786 55.7162 175.701 55.5965C175.016 54.6015 173.51 52.4582 172.791 51.5319C172.74 51.4464 172.62 51.3608 172.398 51.3608C172.107 51.3608 172.073 51.4118 172.073 51.515V55.562C172.073 55.6648 172.004 55.7334 171.902 55.7334H170.601C170.498 55.7334 170.43 55.6648 170.43 55.562V43.3007C170.43 43.1979 170.498 43.1296 170.601 43.1296H171.902C172.004 43.1296 172.073 43.1979 172.073 43.3007V49.8856Z" fill="#2C2965"/>
<path id="Vector_31" d="M13.8231 10.7377V13.7364H5.07667V20.9266H13.823V23.933H2.09152V10.7377H13.8231ZM15.9146 8.64195H1.90138C0.851261 8.64195 0 9.49492 0 10.5471V26.0363H15.9184V18.8309H7.17202V15.8321H15.9184V8.64195H15.9146Z" fill="#00A0CC"/>
<path id="Vector_32" d="M23.7103 2.0957V10.7376H33.9055V23.9291H20.7213V2.0957H23.7103ZM23.7103 20.9152H30.8975V13.725H23.7103V20.9152ZM23.9004 0H18.6298V26.0363H35.997V10.5471C35.997 9.49488 35.1458 8.64191 34.0957 8.64191H25.798V2.00426C25.8072 0.931786 24.9661 0.0451836 23.8966 0H23.9004ZM25.8018 18.8195V15.8207H28.8098V18.8195H25.8018Z" fill="#00A0CC"/>
<path id="Vector_33" d="M33.8789 30.8336V33.8819H5.10336V40.7404H33.8941V53.6538H2.09918V50.6474H30.9089V43.7395H2.09918V30.8336H33.8789ZM35.9704 28.7379H0.00383171V45.8502H28.8212V48.5593H0.00765967V53.8521C0.00765967 54.9042 0.858921 55.7572 1.90904 55.7572H34.0842C35.1343 55.7572 35.9856 54.9042 35.9856 53.8521V38.6373H7.19488V35.97H35.9704V28.7303V28.7379Z" fill="#00A0CC"/>
</g>
</svg>
