<svg width="64" height="65" viewBox="0 0 64 65" fill="none" xmlns="http://www.w3.org/2000/svg">
<path d="M27.4722 17.1433V19.9053H19.3752V26.5276H27.4722V29.2966H16.6117V17.1433H27.4722ZM29.4085 15.2131H16.4356C15.4635 15.2131 14.6754 15.9987 14.6754 16.9679V31.2338H29.412V24.5974H21.315V21.8355H29.412V15.2131H29.4085Z" fill="#00A0CC"/>
<path d="M36.6254 9.18386V17.1433H46.0637V29.2931H33.8584V9.18386H36.6254ZM36.6254 26.5171H43.2791V19.8947H36.6254V26.5171ZM36.8015 7.25366H31.9221V31.2338H48V16.9678C48 15.9987 47.2119 15.2131 46.2398 15.2131H38.5582V9.09964C38.5666 8.11186 37.788 7.29528 36.798 7.25366H36.8015ZM38.5617 24.5869V21.8249H41.3463V24.5869H38.5617Z" fill="#00A0CC"/>
<path d="M46.0391 35.6522V38.4598H19.3999V44.7767H46.0532V56.6702H16.6187V53.9013H43.2896V47.5389H16.6187V35.6522H46.0391ZM47.9753 33.722H14.679V49.4829H41.3569V51.9781H14.6825V56.8529C14.6825 57.8219 15.4706 58.6076 16.4427 58.6076H46.2292C47.2013 58.6076 47.9894 57.8219 47.9894 56.8529V42.8397H21.3361V40.383H47.9753V33.715V33.722Z" fill="#00A0CC"/>
</svg>
