<svg preserveAspectRatio="none" width="100%" height="100%" overflow="visible" style="display: block;" viewBox="0 0 72 109.727" fill="none" xmlns="http://www.w3.org/2000/svg">
<g id="illustration">
<path id="Vector" d="M6.54546 0L5.43611e-06 0L5.43611e-06 2.77789L6.54546 2.77789L6.54546 0Z" fill="var(--fill-0, #272727)"/>
<path id="Vector_2" d="M19.6363 2.38419e-07L13.0909 2.38419e-07L13.0909 2.77789L19.6363 2.77789L19.6363 2.38419e-07Z" fill="var(--fill-0, #272727)"/>
<path id="Vector_3" d="M39.2727 5.06639e-07L26.1818 5.06639e-07L26.1818 2.77789L39.2727 2.77789V5.06639e-07Z" fill="var(--fill-0, #272727)"/>
<path id="Vector_4" d="M52.3636 8.64267e-07L45.8182 8.64267e-07V2.77789L52.3636 2.77789V8.64267e-07Z" fill="var(--fill-0, #272727)"/>
<path id="Vector_5" d="M72 1.10269e-06L58.9091 1.10269e-06V2.77789L72 2.77789V1.10269e-06Z" fill="var(--fill-0, #272727)"/>
<path id="Vector_6" d="M13.0909 2.77791L6.54548 2.77791L6.54548 5.5558L13.0909 5.5558L13.0909 2.77791Z" fill="var(--fill-0, #272727)"/>
<path id="Vector_7" d="M26.1818 2.77791L19.6364 2.77791L19.6364 5.5558L26.1818 5.5558L26.1818 2.77791Z" fill="var(--fill-0, #272727)"/>
<path id="Vector_8" d="M45.8182 2.77791L39.2727 2.77791V5.5558L45.8182 5.5558V2.77791Z" fill="var(--fill-0, #272727)"/>
<path id="Vector_9" d="M58.9091 2.77791L52.3637 2.77791V5.5558L58.9091 5.5558V2.77791Z" fill="var(--fill-0, #272727)"/>
<path id="Vector_10" d="M72 2.77791L65.4545 2.77791V5.5558L72 5.5558V2.77791Z" fill="var(--fill-0, #272727)"/>
<path id="Vector_11" d="M19.6364 5.55581L4.86388e-06 5.55581L4.86388e-06 8.33371L19.6364 8.33371L19.6364 5.55581Z" fill="var(--fill-0, #272727)"/>
<path id="Vector_12" d="M39.2727 5.55581L32.7272 5.55581V8.33371L39.2727 8.33371V5.55581Z" fill="var(--fill-0, #272727)"/>
<path id="Vector_13" d="M65.4545 5.55581L45.8182 5.55581V8.33371L65.4545 8.33371V5.55581Z" fill="var(--fill-0, #272727)"/>
<path id="Vector_14" d="M19.6363 11.1115L13.0909 11.1115L13.0909 13.8894L19.6363 13.8894L19.6363 11.1115Z" fill="var(--fill-0, #272727)"/>
<path id="Vector_15" d="M32.7273 11.1115L26.1818 11.1115L26.1818 13.8894L32.7273 13.8894V11.1115Z" fill="var(--fill-0, #272727)"/>
<path id="Vector_16" d="M58.9091 11.1115L52.3637 11.1115V13.8894L58.9091 13.8894V11.1115Z" fill="var(--fill-0, #272727)"/>
<path id="Vector_17" d="M19.6364 16.6673L6.54547 16.6673L6.54547 19.4452L19.6364 19.4452V16.6673Z" fill="var(--fill-0, #272727)"/>
<path id="Vector_18" d="M45.8182 16.6673L39.2727 16.6673V19.4452H45.8182V16.6673Z" fill="var(--fill-0, #272727)"/>
<path id="Vector_19" d="M65.4545 16.6673L58.9091 16.6673V19.4452H65.4545V16.6673Z" fill="var(--fill-0, #272727)"/>
<path id="Vector_20" d="M26.1818 22.2232L19.6364 22.2232L19.6364 25.001H26.1818L26.1818 22.2232Z" fill="var(--fill-0, #272727)"/>
<path id="Vector_21" d="M58.9091 22.2232L45.8182 22.2232V25.001L58.9091 25.001V22.2232Z" fill="var(--fill-0, #272727)"/>
<path id="Vector_22" d="M13.0909 30.5568L6.54547 30.5568L6.54547 33.3347H13.0909L13.0909 30.5568Z" fill="var(--fill-0, #272727)"/>
<path id="Vector_23" d="M39.2727 36.1126H32.7272V38.8905H39.2727V36.1126Z" fill="var(--fill-0, #272727)"/>
<path id="Vector_24" d="M65.4545 33.3347H58.9091V36.1126H65.4545V33.3347Z" fill="var(--fill-0, #272727)"/>
<path id="Vector_25" d="M26.1818 44.4463H19.6364L19.6364 47.2242H26.1818L26.1818 44.4463Z" fill="var(--fill-0, #272727)"/>
<path id="Vector_26" d="M52.3636 41.6684H45.8182V44.4463H52.3636V41.6684Z" fill="var(--fill-0, #272727)"/>
<path id="Vector_27" d="M6.54546 52.7799H0L0 55.5578H6.54546L6.54546 52.7799Z" fill="var(--fill-0, #272727)"/>
<path id="Vector_28" d="M32.7273 58.3357H26.1818L26.1818 61.1136H32.7273V58.3357Z" fill="var(--fill-0, #272727)"/>
<path id="Vector_29" d="M58.9092 55.5578H52.3637V58.3357H58.9092V55.5578Z" fill="var(--fill-0, #272727)"/>
<path id="Vector_30" d="M19.6363 63.8916H13.0909L13.0909 66.6694H19.6363L19.6363 63.8916Z" fill="var(--fill-0, #272727)"/>
<path id="Vector_31" d="M72 66.6694H65.4545V69.4473H72V66.6694Z" fill="var(--fill-0, #272727)"/>
<path id="Vector_32" d="M45.8182 75.0031H39.2727V77.781H45.8182V75.0031Z" fill="var(--fill-0, #272727)"/>
<path id="Vector_33" d="M13.091 80.5589H6.54553L6.54553 83.3368H13.091L13.091 80.5589Z" fill="var(--fill-0, #272727)"/>
<path id="Vector_34" d="M65.4545 86.1147H58.9091V88.8926H65.4545V86.1147Z" fill="var(--fill-0, #272727)"/>
<path id="Vector_35" d="M32.7273 94.4483H26.1819L26.1819 97.2262H32.7273V94.4483Z" fill="var(--fill-0, #272727)"/>
<path id="Vector_36" d="M49.0909 102.782H45.8182V104.171H49.0909V102.782Z" fill="var(--fill-0, #272727)"/>
<path id="Vector_37" d="M16.3636 106.949H13.0909L13.0909 108.338H16.3636V106.949Z" fill="var(--fill-0, #272727)"/>
<path id="Vector_38" d="M65.4545 108.338H62.1818V109.727H65.4545V108.338Z" fill="var(--fill-0, #272727)"/>
</g>
</svg>
