<svg preserveAspectRatio="none" width="100%" height="100%" overflow="visible" style="display: block;" viewBox="0 0 72 109.727" fill="none" xmlns="http://www.w3.org/2000/svg">
<g id="Group">
<path id="Vector" d="M6.54546 2.563e-06H7.05175e-06V2.7779H6.54546V2.563e-06Z" fill="var(--fill-0, #515151)"/>
<path id="Vector_2" d="M19.6363 1.99676e-06H13.0909V2.7779H19.6363V1.99676e-06Z" fill="var(--fill-0, #515151)"/>
<path id="Vector_3" d="M39.2728 1.43051e-06H26.1818V2.77789H39.2728V1.43051e-06Z" fill="var(--fill-0, #515151)"/>
<path id="Vector_4" d="M52.3636 5.66244e-07H45.8182V2.77789H52.3636V5.66244e-07Z" fill="var(--fill-0, #515151)"/>
<path id="Vector_5" d="M72 0L58.909 0V2.77789H72V0Z" fill="var(--fill-0, #515151)"/>
<path id="Vector_6" d="M13.0909 2.77793L6.54547 2.77793L6.54547 5.55583L13.0909 5.55583L13.0909 2.77793Z" fill="var(--fill-0, #515151)"/>
<path id="Vector_7" d="M26.1818 2.77793L19.6364 2.77793L19.6364 5.55583L26.1818 5.55583L26.1818 2.77793Z" fill="var(--fill-0, #515151)"/>
<path id="Vector_8" d="M45.8182 2.77793L39.2727 2.77793L39.2727 5.55583L45.8182 5.55583L45.8182 2.77793Z" fill="var(--fill-0, #515151)"/>
<path id="Vector_9" d="M58.9091 2.77793L52.3636 2.77793L52.3636 5.55583L58.9091 5.55583L58.9091 2.77793Z" fill="var(--fill-0, #515151)"/>
<path id="Vector_10" d="M72 2.77793L65.4545 2.77793L65.4545 5.55583L72 5.55583L72 2.77793Z" fill="var(--fill-0, #515151)"/>
<path id="Vector_11" d="M19.6364 5.55584L2.06423e-06 5.55584L2.22892e-06 8.33373L19.6364 8.33373L19.6364 5.55584Z" fill="var(--fill-0, #515151)"/>
<path id="Vector_12" d="M39.2727 5.55584L32.7272 5.55584L32.7272 8.33373L39.2727 8.33373L39.2727 5.55584Z" fill="var(--fill-0, #515151)"/>
<path id="Vector_13" d="M65.4545 5.55584L45.8182 5.55584L45.8182 8.33373L65.4545 8.33373L65.4545 5.55584Z" fill="var(--fill-0, #515151)"/>
<path id="Vector_14" d="M19.6363 11.1116L13.0909 11.1116L13.0909 13.8895L19.6363 13.8895L19.6363 11.1116Z" fill="var(--fill-0, #515151)"/>
<path id="Vector_15" d="M32.7273 11.1116L26.1818 11.1116L26.1818 13.8895L32.7273 13.8895L32.7273 11.1116Z" fill="var(--fill-0, #515151)"/>
<path id="Vector_16" d="M58.9091 11.1116L52.3636 11.1116L52.3636 13.8895L58.9091 13.8895L58.9091 11.1116Z" fill="var(--fill-0, #515151)"/>
<path id="Vector_17" d="M19.6364 16.6674L6.54547 16.6674L6.54547 19.4453L19.6364 19.4453L19.6364 16.6674Z" fill="var(--fill-0, #515151)"/>
<path id="Vector_18" d="M45.8182 16.6674L39.2727 16.6674L39.2727 19.4453L45.8182 19.4453L45.8182 16.6674Z" fill="var(--fill-0, #515151)"/>
<path id="Vector_19" d="M65.4545 16.6674L58.9091 16.6674L58.9091 19.4453L65.4545 19.4453L65.4545 16.6674Z" fill="var(--fill-0, #515151)"/>
<path id="Vector_20" d="M26.1818 22.2232L19.6364 22.2232L19.6364 25.0011L26.1818 25.0011L26.1818 22.2232Z" fill="var(--fill-0, #515151)"/>
<path id="Vector_21" d="M58.9091 22.2232L45.8182 22.2232L45.8182 25.0011L58.9091 25.0011L58.9091 22.2232Z" fill="var(--fill-0, #515151)"/>
<path id="Vector_22" d="M13.0909 30.5568L6.54547 30.5568L6.54547 33.3347L13.0909 33.3347L13.0909 30.5568Z" fill="var(--fill-0, #515151)"/>
<path id="Vector_23" d="M39.2727 36.1126L32.7272 36.1126L32.7272 38.8905L39.2727 38.8905L39.2727 36.1126Z" fill="var(--fill-0, #515151)"/>
<path id="Vector_24" d="M65.4545 33.3347L58.9091 33.3347L58.9091 36.1126L65.4545 36.1126L65.4545 33.3347Z" fill="var(--fill-0, #515151)"/>
<path id="Vector_25" d="M26.1818 44.4463L19.6364 44.4463L19.6364 47.2242L26.1818 47.2242L26.1818 44.4463Z" fill="var(--fill-0, #515151)"/>
<path id="Vector_26" d="M52.3636 41.6684L45.8182 41.6684L45.8182 44.4463L52.3636 44.4463L52.3636 41.6684Z" fill="var(--fill-0, #515151)"/>
<path id="Vector_27" d="M6.54546 52.78L0 52.78L1.64685e-07 55.5579L6.54546 55.5579L6.54546 52.78Z" fill="var(--fill-0, #515151)"/>
<path id="Vector_28" d="M32.7273 58.3358L26.1818 58.3358L26.1818 61.1137L32.7273 61.1137L32.7273 58.3358Z" fill="var(--fill-0, #515151)"/>
<path id="Vector_29" d="M58.9092 55.5579L52.3637 55.5579L52.3637 58.3358L58.9092 58.3358L58.9092 55.5579Z" fill="var(--fill-0, #515151)"/>
<path id="Vector_30" d="M19.6363 63.8916L13.0909 63.8916L13.0909 66.6695L19.6363 66.6695L19.6363 63.8916Z" fill="var(--fill-0, #515151)"/>
<path id="Vector_31" d="M72 66.6695L65.4545 66.6695L65.4545 69.4474L72 69.4474L72 66.6695Z" fill="var(--fill-0, #515151)"/>
<path id="Vector_32" d="M45.8182 75.0031L39.2727 75.0031L39.2727 77.781L45.8182 77.781L45.8182 75.0031Z" fill="var(--fill-0, #515151)"/>
<path id="Vector_33" d="M13.091 80.5589L6.54553 80.5589L6.54553 83.3368L13.091 83.3368L13.091 80.5589Z" fill="var(--fill-0, #515151)"/>
<path id="Vector_34" d="M65.4545 86.1147L58.9091 86.1147L58.9091 88.8926L65.4545 88.8926L65.4545 86.1147Z" fill="var(--fill-0, #515151)"/>
<path id="Vector_35" d="M32.7273 94.4484L26.1819 94.4484L26.1819 97.2263L32.7273 97.2263L32.7273 94.4484Z" fill="var(--fill-0, #515151)"/>
<path id="Vector_36" d="M49.0909 102.782L45.8182 102.782L45.8182 104.171L49.0909 104.171L49.0909 102.782Z" fill="var(--fill-0, #515151)"/>
<path id="Vector_37" d="M16.3636 106.949L13.0909 106.949L13.0909 108.338L16.3636 108.338L16.3636 106.949Z" fill="var(--fill-0, #515151)"/>
<path id="Vector_38" d="M65.4545 108.338L62.1818 108.338L62.1818 109.727L65.4546 109.727L65.4545 108.338Z" fill="var(--fill-0, #515151)"/>
</g>
</svg>
