<svg preserveAspectRatio="none" width="100%" height="100%" overflow="visible" style="display: block;" viewBox="0 0 72 105.773" fill="none" xmlns="http://www.w3.org/2000/svg">
<g id="Group">
<path id="Vector" d="M6.54546 2.563e-06H4.74467e-06V2.67779H6.54546V2.563e-06Z" fill="var(--fill-0, #8843FF)"/>
<path id="Vector_2" d="M19.6363 1.99676e-06H13.0909V2.67779H19.6363V1.99676e-06Z" fill="var(--fill-0, #8843FF)"/>
<path id="Vector_3" d="M39.2727 1.43051e-06H26.1818V2.67779H39.2727V1.43051e-06Z" fill="var(--fill-0, #8843FF)"/>
<path id="Vector_4" d="M52.3636 5.66244e-07H45.8182V2.67779H52.3636V5.66244e-07Z" fill="var(--fill-0, #8843FF)"/>
<path id="Vector_5" d="M72 0L58.909 0V2.67779H72V0Z" fill="var(--fill-0, #8843FF)"/>
<path id="Vector_6" d="M13.091 2.67783L6.54553 2.67783L6.54553 5.35562L13.091 5.35562L13.091 2.67783Z" fill="var(--fill-0, #8843FF)"/>
<path id="Vector_7" d="M26.1818 2.67783L19.6364 2.67783L19.6364 5.35562L26.1818 5.35562L26.1818 2.67783Z" fill="var(--fill-0, #8843FF)"/>
<path id="Vector_8" d="M45.8182 2.67783L39.2727 2.67783L39.2727 5.35561L45.8182 5.35561L45.8182 2.67783Z" fill="var(--fill-0, #8843FF)"/>
<path id="Vector_9" d="M58.9091 2.67782L52.3636 2.67782L52.3636 5.35561L58.9091 5.35561L58.9091 2.67782Z" fill="var(--fill-0, #8843FF)"/>
<path id="Vector_10" d="M71.9999 2.67782L65.4545 2.67782L65.4545 5.35561L71.9999 5.35561L71.9999 2.67782Z" fill="var(--fill-0, #8843FF)"/>
<path id="Vector_11" d="M19.6364 5.35563L7.023e-07 5.35563L1.95117e-07 8.03342L19.6364 8.03342L19.6364 5.35563Z" fill="var(--fill-0, #8843FF)"/>
<path id="Vector_12" d="M39.2726 5.35563L32.7272 5.35563L32.7272 8.03342L39.2726 8.03342L39.2726 5.35563Z" fill="var(--fill-0, #8843FF)"/>
<path id="Vector_13" d="M65.4546 5.35562L45.8182 5.35563L45.8182 8.03341L65.4546 8.03341L65.4546 5.35562Z" fill="var(--fill-0, #8843FF)"/>
<path id="Vector_14" d="M19.6363 10.7111L13.0908 10.7111L13.0908 13.3889L19.6363 13.3889L19.6363 10.7111Z" fill="var(--fill-0, #8843FF)"/>
<path id="Vector_15" d="M32.7273 10.7111L26.1819 10.7111L26.1819 13.3889L32.7273 13.3889L32.7273 10.7111Z" fill="var(--fill-0, #8843FF)"/>
<path id="Vector_16" d="M58.9091 10.7111L52.3636 10.7111L52.3636 13.3889L58.9091 13.3889L58.9091 10.7111Z" fill="var(--fill-0, #8843FF)"/>
<path id="Vector_17" d="M19.6364 16.0667L6.54553 16.0667L6.54553 18.7445L19.6364 18.7445L19.6364 16.0667Z" fill="var(--fill-0, #8843FF)"/>
<path id="Vector_18" d="M45.8182 16.0667L39.2727 16.0667L39.2727 18.7445L45.8182 18.7445L45.8182 16.0667Z" fill="var(--fill-0, #8843FF)"/>
<path id="Vector_19" d="M65.4545 16.0667L58.9091 16.0667L58.9091 18.7445L65.4545 18.7445L65.4545 16.0667Z" fill="var(--fill-0, #8843FF)"/>
<path id="Vector_20" d="M26.1818 21.4223L19.6364 21.4223L19.6364 24.1001L26.1818 24.1001L26.1818 21.4223Z" fill="var(--fill-0, #8843FF)"/>
<path id="Vector_21" d="M58.9092 21.4223L45.8182 21.4223L45.8182 24.1001L58.9092 24.1001L58.9092 21.4223Z" fill="var(--fill-0, #8843FF)"/>
<path id="Vector_22" d="M13.091 29.4557L6.54554 29.4557L6.54554 32.1334L13.091 32.1334L13.091 29.4557Z" fill="var(--fill-0, #8843FF)"/>
<path id="Vector_23" d="M39.2726 34.8113L32.7272 34.8113L32.7272 37.489L39.2726 37.489L39.2726 34.8113Z" fill="var(--fill-0, #8843FF)"/>
<path id="Vector_24" d="M65.4545 32.1335L58.9091 32.1335L58.9091 34.8112L65.4545 34.8112L65.4545 32.1335Z" fill="var(--fill-0, #8843FF)"/>
<path id="Vector_25" d="M26.1818 42.8447L19.6364 42.8447L19.6364 45.5224L26.1818 45.5224L26.1818 42.8447Z" fill="var(--fill-0, #8843FF)"/>
<path id="Vector_26" d="M52.3636 40.1669L45.8181 40.1669L45.8181 42.8446L52.3636 42.8446L52.3636 40.1669Z" fill="var(--fill-0, #8843FF)"/>
<path id="Vector_27" d="M6.54546 50.878L6.67184e-06 50.878L6.16465e-06 53.5558L6.54546 53.5558L6.54546 50.878Z" fill="var(--fill-0, #8843FF)"/>
<path id="Vector_28" d="M32.7273 56.2336L26.1819 56.2336L26.1819 58.9114L32.7273 58.9114L32.7273 56.2336Z" fill="var(--fill-0, #8843FF)"/>
<path id="Vector_29" d="M58.9091 53.5558L52.3637 53.5558L52.3637 56.2336L58.9091 56.2336L58.9091 53.5558Z" fill="var(--fill-0, #8843FF)"/>
<path id="Vector_30" d="M19.6363 61.5892L13.0908 61.5892L13.0908 64.267L19.6363 64.267L19.6363 61.5892Z" fill="var(--fill-0, #8843FF)"/>
<path id="Vector_31" d="M71.9999 64.267L65.4545 64.267L65.4545 66.9448L71.9999 66.9448L71.9999 64.267Z" fill="var(--fill-0, #8843FF)"/>
<path id="Vector_32" d="M45.8182 72.3003L39.2727 72.3003L39.2727 74.9781L45.8182 74.9781L45.8182 72.3003Z" fill="var(--fill-0, #8843FF)"/>
<path id="Vector_33" d="M13.091 77.6559L6.54554 77.6559L6.54554 80.3337L13.091 80.3337L13.091 77.6559Z" fill="var(--fill-0, #8843FF)"/>
<path id="Vector_34" d="M65.4545 83.0115L58.9091 83.0115L58.9091 85.6893L65.4545 85.6893L65.4545 83.0115Z" fill="var(--fill-0, #8843FF)"/>
<path id="Vector_35" d="M32.7272 91.0448L26.1818 91.0448L26.1818 93.7226L32.7272 93.7226L32.7272 91.0448Z" fill="var(--fill-0, #8843FF)"/>
<path id="Vector_36" d="M49.0909 99.0782L45.8181 99.0782L45.8181 100.417L49.0909 100.417L49.0909 99.0782Z" fill="var(--fill-0, #8843FF)"/>
<path id="Vector_37" d="M16.3636 103.095L13.0908 103.095L13.0908 104.434L16.3636 104.434L16.3636 103.095Z" fill="var(--fill-0, #8843FF)"/>
<path id="Vector_38" d="M65.4545 104.434L62.1818 104.434L62.1818 105.773L65.4545 105.773L65.4545 104.434Z" fill="var(--fill-0, #8843FF)"/>
</g>
</svg>
