<svg preserveAspectRatio="none" width="100%" height="100%" overflow="visible" style="display: block;" viewBox="0 0 72 105.773" fill="none" xmlns="http://www.w3.org/2000/svg">
<g id="Group">
<path id="Vector" d="M6.54546 1.60933e-06L0 1.60933e-06L0 2.67779L6.54546 2.67779L6.54546 1.60933e-06Z" fill="var(--fill-0, #515151)"/>
<path id="Vector_2" d="M19.6363 8.9407e-07L13.0908 8.9407e-07L13.0908 2.67779L19.6363 2.67779L19.6363 8.9407e-07Z" fill="var(--fill-0, #515151)"/>
<path id="Vector_3" d="M39.2728 1.75834e-06L26.1819 1.75834e-06L26.1819 2.67779L39.2728 2.67779V1.75834e-06Z" fill="var(--fill-0, #515151)"/>
<path id="Vector_4" d="M52.3637 7.00355e-07L45.8182 7.00355e-07V2.67779L52.3637 2.67779V7.00355e-07Z" fill="var(--fill-0, #515151)"/>
<path id="Vector_5" d="M72 0L58.9091 0V2.67779L72 2.67779V0Z" fill="var(--fill-0, #515151)"/>
<path id="Vector_6" d="M13.091 2.6778L6.54553 2.6778L6.54553 5.35559H13.091L13.091 2.6778Z" fill="var(--fill-0, #515151)"/>
<path id="Vector_7" d="M26.1818 2.6778L19.6364 2.6778L19.6364 5.35559H26.1818L26.1818 2.6778Z" fill="var(--fill-0, #515151)"/>
<path id="Vector_8" d="M45.8182 2.6778L39.2727 2.6778V5.35559H45.8182V2.6778Z" fill="var(--fill-0, #515151)"/>
<path id="Vector_9" d="M58.9091 2.6778L52.3636 2.6778V5.35559H58.9091V2.6778Z" fill="var(--fill-0, #515151)"/>
<path id="Vector_10" d="M71.9999 2.6778L65.4545 2.6778V5.35559H71.9999V2.6778Z" fill="var(--fill-0, #515151)"/>
<path id="Vector_11" d="M19.6364 5.3556L1.71667e-06 5.3556L1.71667e-06 8.03339H19.6364L19.6364 5.3556Z" fill="var(--fill-0, #515151)"/>
<path id="Vector_12" d="M39.2726 5.3556H32.7272V8.03339H39.2726V5.3556Z" fill="var(--fill-0, #515151)"/>
<path id="Vector_13" d="M65.4546 5.3556L45.8182 5.3556V8.03339H65.4546V5.3556Z" fill="var(--fill-0, #515151)"/>
<path id="Vector_14" d="M19.6363 10.7111H13.0908L13.0908 13.3889H19.6363L19.6363 10.7111Z" fill="var(--fill-0, #515151)"/>
<path id="Vector_15" d="M32.7273 10.7111H26.1819L26.1819 13.3889H32.7273V10.7111Z" fill="var(--fill-0, #515151)"/>
<path id="Vector_16" d="M58.9091 10.7111H52.3637V13.3889H58.9091V10.7111Z" fill="var(--fill-0, #515151)"/>
<path id="Vector_17" d="M19.6364 16.0667H6.54554L6.54554 18.7445H19.6364L19.6364 16.0667Z" fill="var(--fill-0, #515151)"/>
<path id="Vector_18" d="M45.8182 16.0667H39.2727V18.7445H45.8182V16.0667Z" fill="var(--fill-0, #515151)"/>
<path id="Vector_19" d="M65.4545 16.0667H58.9091V18.7445H65.4545V16.0667Z" fill="var(--fill-0, #515151)"/>
<path id="Vector_20" d="M26.1818 21.4223H19.6364L19.6364 24.1001H26.1818L26.1818 21.4223Z" fill="var(--fill-0, #515151)"/>
<path id="Vector_21" d="M58.9092 21.4223H45.8182V24.1001H58.9092V21.4223Z" fill="var(--fill-0, #515151)"/>
<path id="Vector_22" d="M13.091 29.4556H6.54554L6.54554 32.1334H13.091L13.091 29.4556Z" fill="var(--fill-0, #515151)"/>
<path id="Vector_23" d="M39.2726 34.8112H32.7272V37.489H39.2726V34.8112Z" fill="var(--fill-0, #515151)"/>
<path id="Vector_24" d="M65.4545 32.1334H58.9091V34.8112H65.4545V32.1334Z" fill="var(--fill-0, #515151)"/>
<path id="Vector_25" d="M26.1818 42.8446H19.6364L19.6364 45.5224H26.1818L26.1818 42.8446Z" fill="var(--fill-0, #515151)"/>
<path id="Vector_26" d="M52.3636 40.1668H45.8181V42.8446H52.3636V40.1668Z" fill="var(--fill-0, #515151)"/>
<path id="Vector_27" d="M6.54547 50.8779H1.63083e-05L1.63083e-05 53.5557H6.54547L6.54547 50.8779Z" fill="var(--fill-0, #515151)"/>
<path id="Vector_28" d="M32.7274 56.2335H26.1819L26.1819 58.9113H32.7274V56.2335Z" fill="var(--fill-0, #515151)"/>
<path id="Vector_29" d="M58.9091 53.5557H52.3637V56.2335H58.9091V53.5557Z" fill="var(--fill-0, #515151)"/>
<path id="Vector_30" d="M19.6363 61.5891H13.0908L13.0908 64.2669H19.6363L19.6363 61.5891Z" fill="var(--fill-0, #515151)"/>
<path id="Vector_31" d="M71.9999 64.267H65.4545V66.9447H71.9999V64.267Z" fill="var(--fill-0, #515151)"/>
<path id="Vector_32" d="M45.8182 72.3003H39.2727V74.9781H45.8182V72.3003Z" fill="var(--fill-0, #515151)"/>
<path id="Vector_33" d="M13.091 77.6559H6.54556L6.54556 80.3336H13.091L13.091 77.6559Z" fill="var(--fill-0, #515151)"/>
<path id="Vector_34" d="M65.4545 83.0115H58.9091V85.6892H65.4545V83.0115Z" fill="var(--fill-0, #515151)"/>
<path id="Vector_35" d="M32.7272 91.0448H26.1818L26.1818 93.7226H32.7272V91.0448Z" fill="var(--fill-0, #515151)"/>
<path id="Vector_36" d="M49.0909 99.0782H45.8181V100.417H49.0909V99.0782Z" fill="var(--fill-0, #515151)"/>
<path id="Vector_37" d="M16.3636 103.095H13.0909L13.0909 104.434H16.3636V103.095Z" fill="var(--fill-0, #515151)"/>
<path id="Vector_38" d="M65.4545 104.434H62.1818V105.773H65.4545V104.434Z" fill="var(--fill-0, #515151)"/>
</g>
</svg>
