<svg preserveAspectRatio="none" width="100%" height="100%" overflow="visible" style="display: block;" viewBox="0 0 1617 141" fill="none" xmlns="http://www.w3.org/2000/svg">
<g id="logo reel">
<line id="Line 5" x1="1617" y1="0.5" y2="0.5" stroke="var(--stroke-0, #CECECE)"/>
<line id="Line 22" x1="1617" y1="140.5" y2="140.5" stroke="var(--stroke-0, #CECECE)"/>
<g id="Open-state-foundation-logo_aabbbf3e 1">
<path id="Vector" d="M721.235 66.641L703.205 84.638C705.636 86.8135 708.81 87.9764 712.074 87.8874C715.337 87.7985 718.443 86.4646 720.752 84.1599C723.061 81.8552 724.398 78.7549 724.488 75.4964C724.577 72.2379 723.413 69.069 721.235 66.641Z" fill="var(--fill-0, #9C8E8C)"/>
<path id="Vector_2" d="M724.505 61.3661L706.478 79.363C704.307 76.9343 703.15 73.7682 703.242 70.5143C703.335 67.2603 704.671 64.1651 706.976 61.8632C709.282 59.5614 712.382 58.2275 715.641 58.1351C718.901 58.0426 722.072 59.1987 724.505 61.3661Z" fill="var(--fill-0, #9C8E8C)"/>
<path id="Vector_3" d="M695.717 66.641L677.691 84.638C680.124 86.8054 683.295 87.9614 686.554 87.869C689.813 87.7765 692.913 86.4426 695.219 84.1408C697.525 81.839 698.861 78.7437 698.953 75.4897C699.046 72.2358 697.888 69.0698 695.717 66.641Z" fill="var(--fill-0, #9C8E8C)"/>
<path id="Vector_4" d="M694.712 65.6337L676.682 83.6348C674.517 81.2044 673.363 78.0396 673.459 74.7882C673.554 71.5369 674.89 68.4447 677.194 66.1447C679.497 63.8446 682.595 62.5106 685.851 62.4156C689.108 62.3206 692.278 63.4719 694.712 65.6337Z" fill="var(--fill-0, #9C8E8C)"/>
<path id="Vector_5" d="M804.032 84.3063H805.353V78.5904H805.373L808.89 84.3063H810.568V76.9117H809.247V82.4455H809.226L805.782 76.9117H804.032V84.3063ZM795.39 79.5208C795.503 79.2032 795.68 78.9116 795.908 78.6632C796.134 78.4164 796.411 78.2205 796.719 78.0888C797.047 77.9448 797.402 77.873 797.76 77.8785C798.121 77.873 798.479 77.9447 798.809 78.0888C799.117 78.2204 799.394 78.4163 799.62 78.6632C799.846 78.9137 800.022 79.2047 800.138 79.5208C800.263 79.8616 800.325 80.222 800.321 80.5847C800.325 80.9566 800.263 81.3264 800.138 81.6769C800.021 81.9959 799.842 82.2887 799.612 82.5385C799.385 82.7839 799.109 82.9784 798.801 83.1089C798.474 83.2479 798.12 83.3168 797.764 83.3111C797.411 83.3173 797.06 83.2483 796.735 83.1089C796.428 82.9777 796.152 82.7834 795.925 82.5385C795.694 82.2895 795.516 81.9964 795.402 81.6769C795.276 81.3267 795.213 80.9569 795.216 80.5847C795.213 80.2218 795.276 79.8613 795.402 79.5208M794.061 82.1704C794.251 82.632 794.533 83.0498 794.892 83.3977C795.25 83.7457 795.676 84.0163 796.143 84.193C796.649 84.3897 797.189 84.4872 797.732 84.4802C798.277 84.4871 798.819 84.3896 799.328 84.193C799.802 84.0127 800.233 83.7374 800.596 83.384C800.946 83.0387 801.222 82.6258 801.407 82.1704C801.611 81.6669 801.713 81.1279 801.706 80.5847C801.715 80.0308 801.613 79.4807 801.407 78.9666C801.225 78.5095 800.949 78.096 800.596 77.7531C800.228 77.4168 799.797 77.1569 799.328 76.9885C798.815 76.8027 798.273 76.7109 797.728 76.7175C797.186 76.7112 796.648 76.803 796.139 76.9885C795.673 77.1604 795.247 77.423 794.883 77.7612C794.531 78.1049 794.255 78.5183 794.073 78.9747C793.866 79.4888 793.764 80.0389 793.773 80.5928C793.764 81.1324 793.862 81.6685 794.061 82.1704ZM790.135 84.3063H791.451V76.9117H790.135V84.3063ZM784.665 84.3063H785.982V78.0565H788.255V76.9117H782.4V78.0605H784.673L784.665 84.3063ZM777.185 81.4746L778.348 78.465L779.487 81.4746H777.185ZM774.588 84.3063H776.063L776.736 82.6113H779.949L780.641 84.3063H782.149L778.96 76.9117H777.821L774.588 84.3063ZM768.146 83.1574V78.0362H769.244C769.588 78.0358 769.932 78.0697 770.269 78.1374C770.602 78.21 770.917 78.3475 771.197 78.5419C771.483 78.7436 771.714 79.0133 771.869 79.3267C772.061 79.7304 772.152 80.1747 772.133 80.6211C772.15 81.0518 772.059 81.48 771.869 81.867C771.712 82.1766 771.481 82.4431 771.197 82.6437C770.917 82.8373 770.602 82.9746 770.269 83.0482C769.933 83.1284 769.589 83.1691 769.244 83.1696L768.146 83.1574ZM766.825 84.3063H769.455C769.947 84.3036 770.437 84.2314 770.909 84.0919C771.386 83.955 771.833 83.73 772.226 83.4285C772.625 83.1207 772.95 82.7283 773.178 82.2796C773.436 81.7598 773.563 81.1848 773.547 80.6049C773.567 79.9999 773.441 79.399 773.178 78.8534C772.956 78.4077 772.633 78.0199 772.234 77.7207C771.84 77.4286 771.393 77.2169 770.917 77.0978C770.442 76.975 769.953 76.9125 769.463 76.9117H766.833L766.825 84.3063ZM757.611 84.3063H758.932V78.5904H758.952L762.469 84.3063H764.147V76.9117H762.826V82.4455H762.806L759.37 76.9117H757.619L757.611 84.3063ZM754.99 76.9117H753.673V81.5353C753.673 81.7525 753.645 81.9688 753.588 82.1785C753.535 82.3849 753.441 82.5787 753.312 82.7489C753.174 82.9211 752.998 83.0595 752.798 83.1534C752.55 83.2641 752.279 83.3167 752.008 83.3071C751.729 83.3206 751.452 83.2679 751.197 83.1534C750.997 83.0595 750.821 82.9211 750.683 82.7489C750.553 82.5796 750.459 82.3854 750.407 82.1785C750.351 81.9688 750.322 81.7525 750.322 81.5353V76.9117H749.001V81.5879C748.996 82.0035 749.073 82.416 749.228 82.8015C749.383 83.1493 749.611 83.4597 749.897 83.7116C750.172 83.965 750.494 84.1616 750.845 84.2901C751.611 84.5596 752.446 84.5596 753.211 84.2901C753.56 84.162 753.88 83.9653 754.151 83.7116C754.415 83.4526 754.622 83.1411 754.759 82.7974C754.918 82.4128 754.997 81.9999 754.99 81.5839V76.9117ZM740.456 79.5208C740.574 79.2033 740.753 78.912 740.983 78.6632C741.209 78.4164 741.485 78.2205 741.793 78.0888C742.121 77.9448 742.476 77.873 742.835 77.8785C743.196 77.873 743.553 77.9447 743.884 78.0888C744.192 78.2204 744.468 78.4163 744.694 78.6632C744.922 78.9127 745.098 79.204 745.213 79.5208C745.337 79.8616 745.399 80.222 745.395 80.5847C745.4 80.9566 745.338 81.3264 745.213 81.6769C745.097 81.9956 744.92 82.2884 744.69 82.5385C744.464 82.7835 744.187 82.9779 743.88 83.1089C743.552 83.2479 743.199 83.3168 742.843 83.3111C742.489 83.3169 742.139 83.248 741.814 83.1089C741.506 82.9777 741.23 82.7834 741.003 82.5385C740.773 82.2895 740.595 81.9964 740.481 81.6769C740.356 81.3264 740.294 80.9566 740.298 80.5847C740.294 80.222 740.356 79.8616 740.481 79.5208M739.135 82.1704C739.325 82.632 739.608 83.0498 739.966 83.3977C740.325 83.7457 740.751 84.0163 741.218 84.193C742.246 84.5759 743.378 84.5759 744.407 84.193C744.88 84.0127 745.312 83.7374 745.675 83.384C746.025 83.0387 746.301 82.6258 746.485 82.1704C746.689 81.6669 746.791 81.1279 746.785 80.5847C746.794 80.0308 746.692 79.4807 746.485 78.9666C746.304 78.5095 746.028 78.096 745.675 77.7531C745.308 77.4139 744.877 77.1512 744.407 76.9804C743.375 76.6191 742.25 76.6191 741.218 76.9804C740.752 77.1523 740.325 77.4149 739.962 77.7531C739.61 78.0968 739.334 78.5102 739.152 78.9666C738.946 79.481 738.846 80.0311 738.856 80.5847C738.848 81.1276 738.949 81.6666 739.152 82.1704M732.292 84.3063H733.613V81.1915H736.879V80.0831H733.613V78.0605H737.077V76.9117H732.276L732.292 84.3063ZM778.259 66.2405C777.881 65.8941 777.436 65.6297 776.95 65.4638C776.48 65.2927 775.984 65.2037 775.484 65.2009C775.083 65.2003 774.684 65.2506 774.296 65.3506C773.92 65.4429 773.563 65.6018 773.243 65.8198C772.935 66.0309 772.678 66.3072 772.489 66.6289C772.289 67.0015 772.19 67.4198 772.202 67.8424C772.192 68.1771 772.255 68.5098 772.388 68.8173C772.504 69.0745 772.671 69.3057 772.878 69.4969C773.084 69.6852 773.318 69.8407 773.571 69.958C773.835 70.0765 774.106 70.1805 774.382 70.2695C774.661 70.3545 774.908 70.4354 775.131 70.5122C775.322 70.5767 775.505 70.6607 775.678 70.763C775.812 70.8417 775.929 70.9462 776.022 71.0705C776.103 71.1898 776.144 71.3312 776.14 71.475C776.144 71.6233 776.112 71.7703 776.047 71.9038C775.987 72.0206 775.898 72.1197 775.787 72.191C775.673 72.2661 775.545 72.3196 775.411 72.3487C775.266 72.3799 775.117 72.3949 774.969 72.3932C774.616 72.389 774.269 72.3017 773.956 72.1384C773.643 71.9857 773.367 71.7678 773.146 71.4992L771.776 72.8665C772.171 73.2705 772.654 73.5791 773.186 73.7686C773.75 73.9784 774.347 74.0852 774.949 74.0841C775.36 74.085 775.769 74.0292 776.164 73.9183C776.54 73.8133 776.894 73.6391 777.206 73.4045C777.511 73.1712 777.76 72.8709 777.931 72.5267C778.117 72.1326 778.209 71.7004 778.198 71.2646C778.213 70.8951 778.126 70.5285 777.947 70.2048C777.785 69.9282 777.571 69.6862 777.315 69.4928C777.055 69.2997 776.769 69.1457 776.464 69.0357C776.152 68.9184 775.852 68.8133 775.565 68.7162C775.366 68.6555 775.188 68.5908 775.026 68.5341C774.885 68.4806 774.749 68.4142 774.621 68.3359C774.516 68.2718 774.426 68.1863 774.357 68.0851C774.295 67.9754 774.265 67.8509 774.268 67.7251C774.265 67.5821 774.305 67.4414 774.382 67.3206C774.458 67.215 774.554 67.1256 774.665 67.0576C774.781 66.9891 774.909 66.9425 775.042 66.9201C775.176 66.8964 775.311 66.8842 775.447 66.8837C775.728 66.8912 776.005 66.9588 776.257 67.0819C776.526 67.2032 776.762 67.3861 776.946 67.6159L778.259 66.2405ZM738.147 70.67C738.033 70.9692 737.862 71.2438 737.644 71.479C737.428 71.7255 737.162 71.9227 736.862 72.0575C736.553 72.1871 736.22 72.2538 735.884 72.2538C735.548 72.2538 735.215 72.1871 734.905 72.0575C734.617 71.9324 734.359 71.7476 734.148 71.5154C733.93 71.2811 733.761 71.0062 733.649 70.7064C733.526 70.3668 733.466 70.0077 733.471 69.6466C733.469 69.2969 733.526 68.9493 733.641 68.6191C733.75 68.3183 733.92 68.043 734.14 67.81C734.35 67.5637 734.612 67.3651 734.905 67.2275C735.214 67.0922 735.549 67.0246 735.886 67.0293C736.226 67.0246 736.563 67.0922 736.875 67.2275C737.165 67.3501 737.427 67.5335 737.64 67.7656C737.857 68.0006 738.026 68.2753 738.139 68.5746C738.259 68.9133 738.317 69.2711 738.309 69.6304C738.312 69.9913 738.252 70.3501 738.131 70.6902M740.156 67.7979C739.938 67.2661 739.608 66.7874 739.188 66.3942C738.771 66.0025 738.279 65.6985 737.742 65.5003C736.551 65.085 735.254 65.085 734.063 65.5003C733.513 65.6956 733.009 65.9997 732.58 66.3942C732.165 66.7866 731.837 67.2622 731.619 67.7898C731.373 68.372 731.251 68.9986 731.259 69.6304C731.25 70.2598 731.368 70.8845 731.607 71.4669C731.831 71.9955 732.162 72.472 732.58 72.8665C733 73.2672 733.498 73.5782 734.042 73.7807C735.231 74.2123 736.533 74.2123 737.721 73.7807C738.268 73.5802 738.768 73.2689 739.188 72.8665C739.613 72.4683 739.949 71.9843 740.173 71.4467C740.41 70.8637 740.528 70.2394 740.521 69.6101C740.53 68.9821 740.412 68.3588 740.173 67.7777M810.568 73.8778V72.1343H806.621V70.3747H810.142V68.7364H806.621V67.1385H810.345V65.4153H804.652V73.8778H810.568ZM802.707 67.1588V65.4153H795.868V67.1588H798.262V73.8778H800.313V67.1588H802.707ZM792.213 70.5769H790.082L791.16 67.6766L792.213 70.5769ZM795.71 73.8778L792.189 65.4153H790.204L786.646 73.8778H788.875L789.499 72.2152H792.776L793.437 73.8778H795.71ZM786.48 67.1588V65.4153H779.645V67.1588H782.039V73.8778H784.085V67.1588H786.48ZM766.983 73.8778V65.4153H764.998L765.042 70.937H765.01L761.606 65.4153H759.273V73.8778H761.262L761.213 68.344H761.242L764.653 73.8778H766.983ZM756.773 73.8778V72.1343H752.834V70.3747H756.351V68.7364H752.834V67.1183H756.558V65.4153H750.857V73.8778H756.773ZM746.793 68.5301C746.711 68.6604 746.599 68.7688 746.465 68.8456C746.318 68.9272 746.157 68.9833 745.991 69.0115C745.809 69.0444 745.625 69.0606 745.44 69.06H744.577V67.0657H745.476C745.655 67.0655 745.834 67.0777 746.011 67.1021C746.171 67.1217 746.326 67.1696 746.469 67.2437C746.603 67.3116 746.715 67.4153 746.793 67.5431C746.88 67.6912 746.922 67.8611 746.915 68.0325C746.921 68.2064 746.879 68.3785 746.793 68.5301ZM748.702 66.7988C748.538 66.4744 748.296 66.1962 747.997 65.9897C747.676 65.7794 747.318 65.63 746.943 65.5488C746.516 65.4537 746.08 65.4075 745.643 65.4113H742.531V73.8778H744.577V70.6862H745.598C746.025 70.6867 746.45 70.6392 746.866 70.5446C747.25 70.4582 747.615 70.3034 747.944 70.0875C748.255 69.8841 748.51 69.6059 748.685 69.2784C748.861 68.8895 748.953 68.4675 748.953 68.0406C748.953 67.6138 748.861 67.1918 748.685 66.8028" fill="var(--fill-0, #9C8E8C)"/>
</g>
</g>
</svg>
