<svg viewBox="0 0 159.964 64.8326" fill="none" xmlns="http://www.w3.org/2000/svg">
<g id="Artboard1">
<g id="Vector">
</g>
<g id="Group">
<path id="Vector_2" d="M141.628 18.2C140.272 18.2 139.452 17.4521 139.38 16.2767H138.31C138.381 18.0576 139.594 19.1261 141.556 19.1261C143.376 19.1261 144.553 18.2 144.553 16.6685C144.553 13.5699 139.63 14.7808 139.63 12.7507C139.63 10.7206 140.308 11.5398 141.307 11.5398C142.306 11.5398 143.233 12.2165 143.304 13.2493H144.375C144.303 11.611 143.197 10.6137 141.449 10.6137C139.701 10.6137 138.56 11.5398 138.56 12.9288C138.56 15.8137 143.483 14.6384 143.483 16.811C143.483 18.9836 142.769 18.2 141.628 18.2Z" fill="#141414"/>
</g>
<g id="Group_2">
<path id="Vector_3" d="M123.719 0.641124V7.33701H124.575V1.49592H158.288V28.2439H130.426V29.1343H159.18V0.641124H123.719Z" fill="#141414"/>
</g>
<g id="Group_3">
<path id="Vector_4" d="M107.38 19.411V24.6822C107.38 26.5699 108.629 27.7808 110.627 27.7808C112.589 27.7808 113.873 26.5699 113.873 24.6822V19.411H112.838V24.7178C112.838 26.0713 112.054 26.8548 110.627 26.8548C109.2 26.8548 108.415 26.0713 108.415 24.7178V19.411H107.38Z" fill="#141414"/>
</g>
<g id="Group_4">
<path id="Vector_5" d="M23.1171 54.3507V45.2685H21.5831L18.2297 52.9973L14.8763 45.2685H13.3066V54.3507H14.4125V46.8713L17.6232 54.3507H18.8005L22.0469 46.8713V54.3507H23.1171Z" fill="#141414"/>
</g>
<g id="Group_5">
<path id="Vector_6" d="M35.0681 63.1836H1.35569V36.4356H29.2531V35.5452H0.499506V64.0384H35.9599V57.3781H35.0681V63.1836Z" fill="#141414"/>
</g>
<g id="Group_6">
<path id="Vector_7" d="M45.0569 41.0658C45.0569 43.6658 46.6266 45.3398 49.0168 45.3398C51.407 45.3398 52.9767 43.6658 52.9767 41.0658C52.9767 38.4658 51.407 36.7918 49.0168 36.7918C46.6266 36.7918 45.0569 38.4658 45.0569 41.0658ZM51.9064 41.0658C51.9064 43.2028 50.8719 44.3781 49.0168 44.3781C47.1617 44.3781 46.1628 43.1672 46.1628 41.0658C46.1628 38.9644 47.1974 37.7535 49.0168 37.7535C50.8362 37.7535 51.9064 38.9644 51.9064 41.0658Z" fill="#141414"/>
</g>
<g id="Group_7">
<path id="Vector_8" d="M65.8908 54.4576H32.1784V27.7096H60.0402V26.8192H31.2866V55.3124H66.747V48.6165H65.8908V54.4576Z" fill="#141414"/>
</g>
<g id="Group_8">
<path id="Vector_9" d="M62.1093 46.5863H97.5697V18.0932H62.1093V46.5863ZM62.9655 18.9836H96.6779V45.7315H62.9655V18.9836Z" fill="#141414"/>
</g>
<g id="Group_9">
<path id="Vector_10" d="M79.8395 35.5452L76.4504 27.8165H74.9164V36.8987H75.9867V29.3836L79.233 36.8987H80.4103L83.6567 29.3836V36.8987H84.7269V27.8165H83.1929L79.8395 35.5452Z" fill="#141414"/>
</g>
<g id="Group_10">
<path id="Vector_11" d="M92.8964 16.063H93.7882V10.2219H127.501V36.9699H99.6032V37.8603H128.357V9.36715H92.8964V16.063Z" fill="#141414"/>
</g>
</g>
</svg>
