<svg width="84" height="35" viewBox="0 0 84 35" fill="none" xmlns="http://www.w3.org/2000/svg">
<g clip-path="url(#clip0_42_497)">
<path d="M74.3545 9.80002C73.6428 9.80002 73.212 9.39728 73.1746 8.7644H72.6127C72.6502 9.72331 73.287 10.2986 74.3171 10.2986C75.2722 10.2986 75.8903 9.80002 75.8903 8.97536C75.8903 7.30687 73.3057 7.95892 73.3057 6.86577C73.3057 5.77262 73.6615 6.21372 74.186 6.21372C74.7104 6.21372 75.1973 6.5781 75.2348 7.13426H75.7967C75.7592 6.25207 75.1786 5.71509 74.2609 5.71509C73.3431 5.71509 72.7438 6.21372 72.7438 6.96166C72.7438 8.51509 75.3284 7.88221 75.3284 9.05207C75.3284 10.2219 74.9539 9.80002 74.3545 9.80002Z" fill="#141414"/>
<path d="M64.9525 0.345215V3.95069H65.402V0.805488H83.101V15.2082H68.4736V15.6877H83.5693V0.345215H64.9525Z" fill="#141414"/>
<path d="M56.3746 10.4521V13.2904C56.3746 14.3069 57.0301 14.9589 58.079 14.9589C59.1091 14.9589 59.7833 14.3069 59.7833 13.2904V10.4521H59.2402V13.3096C59.2402 14.0384 58.8281 14.4603 58.079 14.4603C57.3298 14.4603 56.9177 14.0384 56.9177 13.3096V10.4521H56.3746Z" fill="#141414"/>
<path d="M12.1365 29.2658V24.3754H11.3311L9.57061 28.537L7.81007 24.3754H6.98599V29.2658H7.56659V25.2384L9.25221 29.2658H9.87027L11.5746 25.2384V29.2658H12.1365Z" fill="#141414"/>
<path d="M18.4107 34.0219H0.711736V19.6192H15.3579V19.1397H0.262238V34.4822H18.879V30.8959H18.4107V34.0219Z" fill="#141414"/>
<path d="M23.6549 22.1123C23.6549 23.5123 24.479 24.4137 25.7338 24.4137C26.9887 24.4137 27.8127 23.5123 27.8127 22.1123C27.8127 20.7123 26.9887 19.811 25.7338 19.811C24.479 19.811 23.6549 20.7123 23.6549 22.1123ZM27.2509 22.1123C27.2509 23.263 26.7077 23.8959 25.7338 23.8959C24.7599 23.8959 24.2355 23.2439 24.2355 22.1123C24.2355 20.9808 24.7786 20.3288 25.7338 20.3288C26.689 20.3288 27.2509 20.9808 27.2509 22.1123Z" fill="#141414"/>
<path d="M34.5927 29.3233H16.8937V14.9206H31.5211V14.4411H16.4254V29.7836H35.0422V26.1781H34.5927V29.3233Z" fill="#141414"/>
<path d="M32.6074 25.085H51.2241V9.74249H32.6074V25.085ZM33.0569 10.2219H50.7559V24.6247H33.0569V10.2219Z" fill="#141414"/>
<path d="M41.9157 19.1397L40.1365 14.9781H39.3311V19.8685H39.893V15.8219L41.5974 19.8685H42.2154L43.9198 15.8219V19.8685H44.4816V14.9781H43.6763L41.9157 19.1397Z" fill="#141414"/>
<path d="M48.7706 8.64933H49.2388V5.50413H66.9378V19.9069H52.2917V20.3863H67.3873V5.04385H48.7706V8.64933Z" fill="#141414"/>
</g>
<defs>
<clipPath id="clip0_42_497">
<rect width="84" height="35" fill="white"/>
</clipPath>
</defs>
</svg>
