<svg viewBox="0 0 156 48" fill="none" xmlns="http://www.w3.org/2000/svg">
<g id="Open-state-foundation-logo_aabbbf3e 1">
<path id="Vector" d="M57.2348 17.641L39.2046 35.638C41.636 37.8135 44.8099 38.9764 48.0737 38.8874C51.3375 38.7985 54.4431 37.4646 56.752 35.1599C59.061 32.8552 60.3978 29.7549 60.4876 26.4964C60.5774 23.2379 59.4134 20.069 57.2348 17.641Z" fill="#035C6E"/>
<path id="Vector_2" d="M60.5046 12.3661L42.4784 30.3631C40.3075 27.9343 39.1496 24.7682 39.2421 21.5143C39.3347 18.2603 40.6708 15.1651 42.9764 12.8632C45.2819 10.5614 48.3822 9.2275 51.6415 9.13506C54.9007 9.04262 58.0719 10.1987 60.5046 12.3661Z" fill="#7DD0E3"/>
<path id="Vector_3" d="M31.717 17.641L13.6908 35.638C16.1236 37.8054 19.2947 38.9614 22.5539 38.869C25.8132 38.7765 28.9135 37.4426 31.219 35.1408C33.5246 32.839 34.8607 29.7437 34.9533 26.4897C35.0459 23.2358 33.888 20.0698 31.717 17.641Z" fill="#035C6E"/>
<path id="Vector_4" d="M30.7122 16.6337L12.6819 34.6348C10.5166 32.2044 9.36344 29.0396 9.45857 25.7882C9.5537 22.5369 10.8899 19.4447 13.1937 17.1447C15.4975 14.8446 18.5946 13.5106 21.8513 13.4156C25.108 13.3206 28.2778 14.4719 30.7122 16.6337Z" fill="#7DD0E3"/>
<path id="Vector_5" d="M140.032 35.3063H141.353V29.5904H141.373L144.89 35.3063H146.568V27.9117H145.247V33.4455H145.226L141.782 27.9117H140.032V35.3063ZM131.39 30.5208C131.503 30.2032 131.68 29.9116 131.908 29.6632C132.134 29.4164 132.411 29.2205 132.719 29.0888C133.047 28.9448 133.402 28.873 133.76 28.8785C134.121 28.873 134.479 28.9447 134.809 29.0888C135.117 29.2204 135.394 29.4163 135.62 29.6632C135.846 29.9137 136.022 30.2047 136.138 30.5208C136.263 30.8616 136.325 31.222 136.321 31.5847C136.325 31.9566 136.263 32.3264 136.138 32.6769C136.021 32.9959 135.842 33.2887 135.612 33.5385C135.385 33.7839 135.109 33.9784 134.801 34.1089C134.474 34.2479 134.12 34.3168 133.764 34.3111C133.411 34.3173 133.06 34.2483 132.735 34.1089C132.428 33.9777 132.152 33.7834 131.925 33.5385C131.694 33.2895 131.516 32.9964 131.402 32.6769C131.276 32.3267 131.213 31.9569 131.216 31.5847C131.213 31.2218 131.276 30.8613 131.402 30.5208M130.061 33.1704C130.251 33.632 130.533 34.0498 130.892 34.3977C131.25 34.7456 131.676 35.0163 132.143 35.193C132.649 35.3897 133.189 35.4872 133.732 35.4802C134.277 35.4871 134.819 35.3896 135.328 35.193C135.802 35.0127 136.233 34.7374 136.596 34.384C136.946 34.0387 137.222 33.6258 137.407 33.1704C137.611 32.6669 137.713 32.1279 137.706 31.5847C137.715 31.0308 137.613 30.4807 137.407 29.9666C137.225 29.5095 136.949 29.096 136.596 28.7531C136.228 28.4168 135.797 28.1569 135.328 27.9885C134.815 27.8027 134.273 27.7109 133.728 27.7175C133.186 27.7112 132.648 27.803 132.139 27.9885C131.673 28.1604 131.246 28.423 130.883 28.7612C130.531 29.1049 130.255 29.5183 130.073 29.9747C129.866 30.4888 129.764 31.0389 129.773 31.5928C129.764 32.1324 129.862 32.6685 130.061 33.1704ZM126.135 35.3063H127.451V27.9117H126.135V35.3063ZM120.665 35.3063H121.982V29.0565H124.255V27.9117H118.4V29.0605H120.673L120.665 35.3063ZM113.185 32.4746L114.348 29.465L115.487 32.4746H113.185ZM110.588 35.3063H112.063L112.736 33.6113H115.949L116.641 35.3063H118.149L114.96 27.9117H113.821L110.588 35.3063ZM104.146 34.1574V29.0362H105.244C105.588 29.0358 105.931 29.0697 106.269 29.1374C106.602 29.21 106.917 29.3475 107.197 29.5419C107.483 29.7436 107.714 30.0133 107.869 30.3266C108.061 30.7304 108.152 31.1747 108.133 31.6211C108.15 32.0518 108.059 32.48 107.869 32.867C107.712 33.1766 107.481 33.4431 107.197 33.6437C106.917 33.8373 106.602 33.9746 106.269 34.0482C105.933 34.1284 105.589 34.1691 105.244 34.1696L104.146 34.1574ZM102.825 35.3063H105.455C105.947 35.3036 106.437 35.2314 106.909 35.0919C107.386 34.955 107.833 34.73 108.226 34.4285C108.625 34.1207 108.95 33.7283 109.178 33.2796C109.436 32.7598 109.563 32.1848 109.547 31.6049C109.567 30.9999 109.441 30.399 109.178 29.8534C108.956 29.4077 108.633 29.0199 108.234 28.7207C107.84 28.4286 107.393 28.2169 106.917 28.0978C106.442 27.975 105.953 27.9125 105.463 27.9117H102.833L102.825 35.3063ZM93.6113 35.3063H94.9322V29.5904H94.9525L98.4694 35.3063H100.147V27.9117H98.8259V33.4455H98.8057L95.3698 27.9117H93.6194L93.6113 35.3063ZM90.9899 27.9117H89.6731V32.5353C89.6732 32.7525 89.6446 32.9688 89.588 33.1785C89.5347 33.3849 89.441 33.5787 89.3124 33.7489C89.1741 33.9211 88.9981 34.0595 88.7979 34.1534C88.5497 34.2641 88.2795 34.3167 88.0078 34.3071C87.7293 34.3206 87.4516 34.2679 87.1974 34.1534C86.9973 34.0595 86.8213 33.9211 86.6829 33.7489C86.5529 33.5796 86.4591 33.3854 86.4074 33.1785C86.3507 32.9688 86.3221 32.7525 86.3223 32.5353V27.9117H85.0014V32.5879C84.9955 33.0034 85.0726 33.416 85.2283 33.8014C85.3831 34.1493 85.6111 34.4597 85.8968 34.7116C86.1716 34.965 86.4938 35.1615 86.8449 35.2901C87.6106 35.5596 88.4455 35.5596 89.2112 35.2901C89.5601 35.162 89.8797 34.9653 90.1512 34.7116C90.4154 34.4526 90.6224 34.1411 90.7589 33.7974C90.9179 33.4128 90.9965 32.9999 90.9899 32.5839V27.9117ZM76.4563 30.5208C76.574 30.2033 76.753 29.912 76.983 29.6632C77.2091 29.4164 77.4854 29.2205 77.7934 29.0888C78.1213 28.9448 78.4765 28.873 78.8347 28.8785C79.1955 28.873 79.5533 28.9447 79.8841 29.0888C80.1921 29.2204 80.4684 29.4163 80.6944 29.6632C80.9216 29.9127 81.0977 30.204 81.213 30.5208C81.3374 30.8616 81.3992 31.222 81.3954 31.5847C81.3995 31.9566 81.3378 32.3264 81.213 32.6769C81.0973 32.9956 80.9197 33.2884 80.6904 33.5385C80.4635 33.7835 80.1874 33.9779 79.88 34.1089C79.5522 34.2479 79.1989 34.3168 78.8428 34.3111C78.4893 34.3169 78.1386 34.248 77.8136 34.1089C77.5064 33.9777 77.2303 33.7834 77.0033 33.5385C76.7726 33.2895 76.5948 32.9964 76.4806 32.6769C76.3558 32.3264 76.2941 31.9566 76.2983 31.5847C76.2944 31.222 76.3562 30.8616 76.4806 30.5208M75.1354 33.1704C75.3252 33.632 75.608 34.0498 75.9662 34.3977C76.3245 34.7456 76.7506 35.0163 77.218 35.193C78.2463 35.5759 79.3784 35.5759 80.4067 35.193C80.8804 35.0127 81.312 34.7374 81.6749 34.384C82.025 34.0387 82.3007 33.6258 82.4853 33.1704C82.6894 32.6669 82.7913 32.1279 82.7851 31.5847C82.794 31.0308 82.6921 30.4807 82.4853 29.9666C82.304 29.5095 82.0278 29.096 81.6749 28.7531C81.3079 28.4139 80.8767 28.1512 80.4067 27.9804C79.3746 27.6191 78.2501 27.6191 77.218 27.9804C76.7522 28.1523 76.3252 28.4149 75.962 28.7531C75.6101 29.0968 75.3341 29.5102 75.1516 29.9666C74.9462 30.481 74.8457 31.0311 74.8559 31.5847C74.8484 32.1276 74.9489 32.6666 75.1516 33.1704M68.292 35.3063H69.6129V32.1915H72.8786V31.0831H69.6129V29.0605H73.0771V27.9117H68.2758L68.292 35.3063ZM114.259 17.2405C113.881 16.8941 113.436 16.6297 112.95 16.4638C112.48 16.2927 111.984 16.2037 111.484 16.2009C111.083 16.2003 110.684 16.2506 110.296 16.3506C109.92 16.4429 109.563 16.6018 109.243 16.8198C108.935 17.0309 108.678 17.3072 108.489 17.6289C108.289 18.0015 108.19 18.4198 108.202 18.8424C108.192 19.1771 108.255 19.5098 108.388 19.8173C108.504 20.0745 108.671 20.3057 108.878 20.4969C109.084 20.6852 109.318 20.8407 109.571 20.958C109.835 21.0765 110.106 21.1805 110.381 21.2695C110.661 21.3545 110.908 21.4354 111.131 21.5122C111.322 21.5767 111.505 21.6607 111.678 21.763C111.812 21.8417 111.929 21.9462 112.022 22.0705C112.103 22.1898 112.144 22.3312 112.14 22.475C112.144 22.6233 112.112 22.7703 112.047 22.9038C111.987 23.0206 111.898 23.1197 111.787 23.191C111.673 23.2661 111.545 23.3196 111.411 23.3487C111.266 23.3799 111.117 23.3949 110.969 23.3932C110.616 23.389 110.269 23.3017 109.956 23.1384C109.643 22.9857 109.367 22.7678 109.146 22.4992L107.776 23.8665C108.171 24.2705 108.654 24.5791 109.186 24.7686C109.75 24.9784 110.347 25.0852 110.949 25.0841C111.36 25.085 111.769 25.0292 112.164 24.9183C112.54 24.8133 112.894 24.6391 113.206 24.4045C113.511 24.1712 113.759 23.8708 113.931 23.5267C114.117 23.1326 114.209 22.7004 114.198 22.2646C114.213 21.8951 114.126 21.5285 113.947 21.2048C113.785 20.9282 113.571 20.6862 113.315 20.4928C113.055 20.2997 112.769 20.1457 112.464 20.0357C112.152 19.9184 111.852 19.8132 111.565 19.7162C111.366 19.6555 111.188 19.5908 111.026 19.5341C110.885 19.4806 110.749 19.4142 110.621 19.3359C110.516 19.2718 110.426 19.1863 110.357 19.0851C110.295 18.9754 110.265 18.8509 110.268 18.7251C110.265 18.5821 110.305 18.4414 110.381 18.3206C110.458 18.215 110.554 18.1256 110.665 18.0576C110.781 17.9891 110.909 17.9425 111.042 17.9201C111.176 17.8964 111.311 17.8842 111.447 17.8837C111.728 17.8912 112.005 17.9588 112.257 18.0819C112.526 18.2031 112.762 18.3861 112.946 18.6159L114.259 17.2405ZM74.1468 21.67C74.0325 21.9692 73.862 22.2438 73.6444 22.479C73.4282 22.7255 73.1615 22.9227 72.8624 23.0575C72.5525 23.1871 72.2199 23.2538 71.8839 23.2538C71.5479 23.2538 71.2153 23.1871 70.9054 23.0575C70.6173 22.9323 70.359 22.7476 70.1477 22.5154C69.9299 22.2811 69.7605 22.0062 69.6494 21.7064C69.5263 21.3668 69.4659 21.0077 69.4711 20.6466C69.4686 20.2969 69.5261 19.9493 69.6413 19.6191C69.7504 19.3183 69.92 19.043 70.1396 18.81C70.3505 18.5637 70.6115 18.3651 70.9054 18.2275C71.2143 18.0922 71.5486 18.0246 71.8859 18.0293C72.2258 18.0246 72.5628 18.0922 72.8746 18.2275C73.1655 18.35 73.4266 18.5335 73.6403 18.7655C73.8572 19.0006 74.0264 19.2753 74.1387 19.5746C74.259 19.9133 74.3167 20.2711 74.3089 20.6304C74.3121 20.9913 74.2517 21.3501 74.1306 21.6902M76.1565 18.7979C75.9382 18.2661 75.6079 17.7874 75.1881 17.3942C74.7708 17.0025 74.2789 16.6985 73.7416 16.5003C72.5506 16.085 71.2537 16.085 70.0626 16.5003C69.5131 16.6956 69.0087 16.9997 68.5797 17.3942C68.1646 17.7866 67.8373 18.2622 67.6194 18.7898C67.3735 19.372 67.2507 19.9986 67.2588 20.6304C67.2496 21.2598 67.3681 21.8845 67.6073 22.4669C67.8311 22.9955 68.1622 23.472 68.5797 23.8665C69.0001 24.2672 69.4977 24.5782 70.0424 24.7807C71.2306 25.2123 72.5331 25.2123 73.7214 24.7807C74.2682 24.5802 74.7675 24.2689 75.1881 23.8665C75.6134 23.4683 75.949 22.9843 76.1727 22.4467C76.4099 21.8637 76.5284 21.2394 76.5211 20.6101C76.5301 19.9821 76.4115 19.3588 76.1727 18.7777M146.568 24.8778V23.1343H142.621V21.3747H146.142V19.7364H142.621V18.1385H146.345V16.4153H140.652V24.8778H146.568ZM138.707 18.1588V16.4153H131.868V18.1588H134.262V24.8778H136.313V18.1588H138.707ZM128.213 21.5769H126.082L127.16 18.6766L128.213 21.5769ZM131.71 24.8778L128.189 16.4153H126.204L122.646 24.8778H124.875L125.499 23.2152H128.776L129.437 24.8778H131.71ZM122.48 18.1588V16.4153H115.645V18.1588H118.039V24.8778H120.085V18.1588H122.48ZM102.983 24.8778V16.4153H100.998L101.042 21.937H101.01L97.6064 16.4153H95.2726V24.8778H97.262L97.2133 19.344H97.2417L100.653 24.8778H102.983ZM92.7726 24.8778V23.1343H88.8343V21.3747H92.3513V19.7364H88.8343V18.1183H92.5579V16.4153H86.8571V24.8778H92.7726ZM82.7932 19.5301C82.7113 19.6604 82.5986 19.7688 82.465 19.8456C82.3175 19.9272 82.1572 19.9833 81.991 20.0115C81.8091 20.0444 81.6247 20.0606 81.4399 20.06H80.5769V18.0657H81.4764C81.6553 18.0655 81.834 18.0777 82.0112 18.1021C82.1711 18.1217 82.3261 18.1696 82.4691 18.2437C82.6028 18.3116 82.715 18.4153 82.7932 18.5431C82.8799 18.6912 82.9221 18.8611 82.9148 19.0325C82.9208 19.2064 82.8787 19.3785 82.7932 19.5301ZM84.7016 17.7988C84.5381 17.4744 84.2957 17.1962 83.9966 16.9897C83.6755 16.7794 83.3184 16.63 82.9431 16.5488C82.5162 16.4537 82.0799 16.4075 81.6425 16.4113H78.5308V24.8778H80.5769V21.6862H81.5979C82.0247 21.6867 82.4501 21.6392 82.8661 21.5446C83.25 21.4582 83.6151 21.3034 83.9439 21.0875C84.255 20.8841 84.51 20.6059 84.6854 20.2784C84.8615 19.8895 84.9525 19.4675 84.9525 19.0406C84.9525 18.6138 84.8615 18.1918 84.6854 17.8028" fill="#035C6E"/>
</g>
</svg>
